<svg height="368pt" viewBox="0 0 368 368.008" width="368pt" xmlns="http://www.w3.org/2000/svg"><path d="m367.226562 36.679688c-.375-.808594-.863281-1.558594-1.488281-2.207032-.109375-.113281-.238281-.199218-.359375-.3125-.304687-.28125-.589844-.585937-.941406-.816406l-48-32c-2.691406-1.792969-6.183594-1.792969-8.875 0l-48 32c-.351562.230469-.636719.535156-.941406.816406-.121094.113282-.25.191406-.359375.3125-.625.648438-1.113281 1.390625-1.488281 2.207032-.082032.175781-.144532.359374-.210938.542968-.328125.890625-.558594 1.808594-.558594 2.785156v24h-32.808594c-3.71875-18.230468-19.871093-32-39.191406-32-19.320312 0-35.472656 13.769532-39.191406 32h-32.808594v-24c0-.976562-.230468-1.894531-.558594-2.785156-.074218-.183594-.128906-.367187-.210937-.542968-.375-.808594-.863281-1.558594-1.488281-2.207032-.109375-.113281-.238282-.199218-.359375-.3125-.300781-.28125-.589844-.585937-.941407-.816406l-48-32c-2.6875-1.792969-6.183593-1.792969-8.875 0l-48 32c-.351562.230469-.636718.535156-.941406.816406-.121094.113282-.25.191406-.359375.3125-.625.648438-1.113281 1.390625-1.488281 2.207032-.082031.175781-.144531.359374-.210938.542968-.335937.890625-.56640575 1.808594-.56640575 2.785156v64c0 2.671876 1.33593775 5.167969 3.55859375 6.65625l44.441406 29.625v87.4375l-44.441406 29.625c-.351562.234376-.636719.535157-.941406.816407-.121094.113281-.25.191406-.359375.3125-.625.648437-1.113281 1.390625-1.488281 2.207031-.082032.175781-.144532.359375-.210938.542969-.328125.882812-.55859375 1.800781-.55859375 2.777343v64c0 2.671876 1.33593775 5.167969 3.55859375 6.65625l48 32c1.34375.894532 2.898438 1.34375 4.441406 1.34375 1.542969 0 3.097656-.449218 4.441406-1.34375l48-32c2.222657-1.488281 3.558594-3.984374 3.558594-6.65625v-24h32.808594c3.71875 18.230469 19.871094 32 39.191406 32 19.320313 0 35.472656-13.769531 39.191406-32h32.808594v24c0 2.671876 1.335938 5.167969 3.558594 6.65625l48 32c1.34375.894532 2.898438 1.34375 4.441406 1.34375 1.542969 0 3.097656-.449218 4.441406-1.34375l48-32c2.222657-1.488281 3.558594-3.984374 3.558594-6.65625v-64c0-.976562-.230468-1.894531-.558594-2.785156-.074218-.183594-.128906-.367187-.210937-.542968-.375-.808594-.863281-1.558594-1.488281-2.207032-.109375-.113281-.238282-.199218-.359375-.3125-.300781-.28125-.589844-.585937-.941407-.816406l-44.441406-29.617188v-87.4375l44.441406-29.625c2.222657-1.488281 3.558594-3.984374 3.558594-6.65625v-64c0-.976562-.230468-1.894531-.558594-2.785156-.074218-.183594-.128906-.359375-.21875-.542968zm-55.222656-19.054688 33.574219 22.382812-33.574219 22.382813-33.574218-22.382813zm-52.441406 93.039062 44.441406 29.625v35.71875h-80v-24c0-4.414062-3.582031-8-8-8h-24v-32.808593c15.648438-3.191407 28-15.542969 31.191406-31.191407h32.808594v24c0 2.671876 1.335938 5.167969 3.558594 6.65625zm-99.558594 97.34375v-48h48v48zm24-160c13.230469 0 24 10.769532 24 24 0 13.230469-10.769531 24-24 24-13.230468 0-24-10.769531-24-24 0-13.230468 10.769532-24 24-24zm-39.191406 32c3.191406 15.648438 15.542969 28 31.191406 31.191407v32.808593h-24c-4.414062 0-8 3.585938-8 8v24h-80v-35.71875l44.441406-29.625c2.222657-1.488281 3.558594-3.984374 3.558594-6.65625v-24zm-88.808594-62.382812 33.574219 22.382812-33.574219 22.382813-33.574218-22.382813zm-40 37.328125 35.558594 23.710937c1.34375.894532 2.898438 1.34375 4.441406 1.34375 1.542969 0 3.097656-.449218 4.441406-1.34375l35.558594-23.710937v44.765625l-40 26.664062-40-26.664062zm40 186.671875 33.574219 22.382812-33.574219 22.382813-33.574218-22.382813zm40 82.101562-40 26.664063-40-26.664063v-44.765624l35.558594 23.710937c1.34375.886719 2.898438 1.335937 4.441406 1.335937 1.542969 0 3.097656-.449218 4.441406-1.34375l35.558594-23.710937zm16-59.71875c0-.976562-.230468-1.894531-.558594-2.785156-.074218-.183594-.128906-.367187-.210937-.542968-.375-.808594-.863281-1.558594-1.488281-2.207032-.109375-.113281-.238282-.199218-.359375-.3125-.300781-.28125-.589844-.585937-.941407-.816406l-44.441406-29.617188v-35.71875h80v24c0 4.417969 3.585938 8 8 8h24v32.808594c-15.648437 3.191406-28 15.542969-31.191406 31.191406h-32.808594zm72 56c-13.230468 0-24-10.769531-24-24 0-13.230468 10.769532-24 24-24 13.230469 0 24 10.769532 24 24 0 13.230469-10.769531 24-24 24zm39.191406-32c-3.191406-15.648437-15.542968-28-31.191406-31.191406v-32.808594h24c4.417969 0 8-3.582031 8-8v-24h80v35.71875l-44.441406 29.625c-.351562.234376-.636719.535157-.941406.816407-.121094.113281-.25.191406-.359375.3125-.625.648437-1.113281 1.390625-1.488281 2.207031-.082032.175781-.144532.359375-.210938.542969-.328125.882812-.558594 1.800781-.558594 2.777343v24zm88.808594 62.382813-40-26.664063v-44.765624l35.558594 23.710937c1.34375.886719 2.898438 1.335937 4.441406 1.335937 1.542969 0 3.097656-.449218 4.441406-1.34375l35.558594-23.710937v44.765625zm0-64-33.574218-22.382813 33.574218-22.382812 33.574219 22.382812zm0-160-40-26.664063v-44.765624l35.558594 23.710937c1.34375.886719 2.898438 1.335937 4.441406 1.335937 1.542969 0 3.097656-.449218 4.441406-1.34375l35.558594-23.710937v44.765625zm0 0"/></svg>