<svg id="Layer" enable-background="new 0 0 64 64" height="512" viewBox="0 0 64 64" width="512" xmlns="http://www.w3.org/2000/svg"><path d="m50 34c-2.276 0-4.261 1.274-5.277 3.147l-4.993-3.121c.17-.648.27-1.325.27-2.026 0-.901-.157-1.765-.433-2.574l4.961-2.977c.939 2.09 3.036 3.551 5.472 3.551 3.309 0 6-2.691 6-6 0-.83-.167-1.636-.496-2.393-.22-.507-.808-.74-1.315-.519-.507.22-.739.809-.519 1.315.219.506.33 1.042.33 1.597 0 2.206-1.794 4-4 4s-4-1.794-4-4 1.794-4 4-4c.558 0 1.096.112 1.601.333.507.225 1.095-.01 1.317-.515.222-.506-.009-1.096-.515-1.317-.759-.332-1.568-.501-2.403-.501-3.309 0-6 2.691-6 6 0 .143.012.281.021.421l-5.334 3.2c-1.257-1.913-3.312-3.253-5.688-3.552v-4.159c2.833-.479 5-2.943 5-5.91 0-3.309-2.691-6-6-6s-6 2.691-6 6c0 .609.093 1.196.262 1.75l-8.019 4.011c-1.087-1.087-2.587-1.761-4.242-1.761-.832 0-1.638.168-2.396.498-.506.221-.737.811-.517 1.317.221.507.808.738 1.316.517.505-.221 1.042-.332 1.597-.332 2.206 0 4 1.794 4 4s-1.794 4-4 4-4-1.794-4-4c0-.559.113-1.099.335-1.605s-.008-1.096-.514-1.318c-.506-.217-1.095.009-1.317.514-.335.762-.504 1.572-.504 2.409 0 3.309 2.691 6 6 6 2.362 0 4.403-1.375 5.382-3.363l5.18 2.438c-.358.907-.562 1.892-.562 2.925 0 .701.1 1.378.27 2.027l-4.993 3.12c-1.016-1.873-3-3.147-5.277-3.147-3.309 0-6 2.691-6 6 0 .834.168 1.643.5 2.402.222.507.811.739 1.317.516.506-.221.737-.811.516-1.316-.221-.506-.333-1.045-.333-1.602 0-2.206 1.794-4 4-4s4 1.794 4 4-1.794 4-4 4c-.556 0-1.094-.111-1.598-.332-.505-.224-1.096.009-1.317.516-.222.506.009 1.096.515 1.316.759.332 1.567.5 2.4.5 3.309 0 6-2.691 6-6 0-.307-.03-.605-.075-.899l5.103-3.19c1.217 2.16 3.406 3.697 5.972 4.02v4.159c-2.833.479-5 2.943-5 5.91 0 3.309 2.691 6 6 6s6-2.691 6-6c0-.926-.217-1.801-.594-2.585l7.757-3.879c1.093 1.49 2.852 2.464 4.837 2.464.838 0 1.649-.17 2.412-.506.506-.222.735-.812.513-1.317s-.812-.734-1.318-.513c-.507.223-1.048.336-1.607.336-2.206 0-4-1.794-4-4s1.794-4 4-4 4 1.794 4 4c0 .555-.112 1.092-.332 1.597-.221.506.011 1.096.517 1.316.507.22 1.095-.012 1.316-.518.332-.757.499-1.564.499-2.395 0-3.309-2.691-6-6-6zm-18-24c2.206 0 4 1.794 4 4s-1.794 4-4 4-4-1.794-4-4 1.794-4 4-4zm-12.044 14.697c.027-.229.044-.461.044-.697 0-.927-.217-1.801-.594-2.585l7.757-3.879c.905 1.234 2.267 2.108 3.836 2.374v4.159c-2.248.282-4.204 1.499-5.474 3.25zm6.044 7.303c0-3.309 2.691-6 6-6s6 2.691 6 6-2.691 6-6 6-6-2.691-6-6zm6 22c-2.206 0-4-1.794-4-4s1.794-4 4-4 4 1.794 4 4-1.794 4-4 4zm4.242-8.239c-.862-.863-1.988-1.459-3.242-1.671v-4.159c2.565-.322 4.755-1.859 5.972-4.021l5.103 3.189c-.045.296-.075.594-.075.901 0 .609.093 1.196.262 1.751z"/></svg>