<?xml version="1.0" encoding="iso-8859-1"?>
<!-- Generator: Adobe Illustrator 19.0.0, SVG Export Plug-In . SVG Version: 6.00 Build 0)  -->
<svg version="1.1" id="Capa_1" xmlns="http://www.w3.org/2000/svg" xmlns:xlink="http://www.w3.org/1999/xlink" x="0px" y="0px"
	 viewBox="0 0 368 368" style="enable-background:new 0 0 368 368;" xml:space="preserve">
<g>
	<g>
		<path d="M200,160h-32c-4.416,0-8,3.584-8,8v32c0,4.416,3.584,8,8,8h32c4.424,0,8-3.584,8-8v-32C208,163.584,204.424,160,200,160z
			 M192,192h-16v-16h16V192z"/>
	</g>
</g>
<g>
	<g>
		<path d="M360,176H256v-32h40c4.424,0,8-3.584,8-8v-32c0-4.416-3.576-8-8-8s-8,3.584-8,8v24h-32v-8c0-4.416-3.576-8-8-8h-8V16h40
			c4.424,0,8-3.584,8-8s-3.576-8-8-8h-48c-4.424,0-8,3.584-8,8v104h-32V8c0-4.416-3.584-8-8-8c-4.416,0-8,3.584-8,8v104h-32V40
			c0-4.416-3.584-8-8-8s-8,3.584-8,8v72h-8c-4.416,0-8,3.584-8,8v8H40c-4.416,0-8,3.584-8,8s3.584,8,8,8h72v32H8
			c-4.416,0-8,3.584-8,8s3.584,8,8,8h104v32H72c-4.416,0-8,3.584-8,8v32c0,4.416,3.584,8,8,8s8-3.584,8-8v-24h32v8
			c0,4.416,3.584,8,8,8h8v96H88c-4.416,0-8,3.584-8,8c0,4.416,3.584,8,8,8h48c4.416,0,8-3.584,8-8V256h32v104c0,4.416,3.584,8,8,8
			s8-3.584,8-8V256h32v72c0,4.416,3.576,8,8,8s8-3.584,8-8v-72h8c4.424,0,8-3.584,8-8v-8h72c4.424,0,8-3.584,8-8
			c0-4.416-3.576-8-8-8h-72v-32h104c4.424,0,8-3.584,8-8C368,179.584,364.424,176,360,176z M240,240h-7.984
			c-0.008,0-0.016,0-0.016,0h-0.016h-47.96c-0.008,0-0.016,0-0.016,0h-0.016h-47.96c-0.008,0-0.016,0-0.016,0H136h-8v-7.984
			c0-0.008,0-0.016,0-0.016v-0.016v-47.96c0-0.008,0-0.016,0-0.016v-0.016v-47.96c0-0.008,0-0.016,0-0.016V136v-8h112V240z"/>
	</g>
</g>
<g>
</g>
<g>
</g>
<g>
</g>
<g>
</g>
<g>
</g>
<g>
</g>
<g>
</g>
<g>
</g>
<g>
</g>
<g>
</g>
<g>
</g>
<g>
</g>
<g>
</g>
<g>
</g>
<g>
</g>
</svg>
