<?xml version="1.0" encoding="iso-8859-1"?>
<!-- Generator: Adobe Illustrator 19.0.0, SVG Export Plug-In . SVG Version: 6.00 Build 0)  -->
<svg version="1.1" id="Capa_1" xmlns="http://www.w3.org/2000/svg" xmlns:xlink="http://www.w3.org/1999/xlink" x="0px" y="0px"
	 viewBox="0 0 368 368" style="enable-background:new 0 0 368 368;" xml:space="preserve">
<g>
	<g>
		<path d="M344,64H24C10.768,64,0,74.768,0,88v192c0,13.232,10.768,24,24,24h112c4.416,0,8-3.576,8-8s-3.584-8-8-8H24
			c-4.408,0-8-3.584-8-8V144h152c4.416,0,8-3.584,8-8s-3.584-8-8-8H16V88c0-4.408,3.592-8,8-8h320c4.416,0,8,3.592,8,8v40h-65.472
			c-3.312-9.288-12.112-16-22.528-16h-32c-13.232,0-24,10.768-24,24v40h-8c-13.232,0-24,10.768-24,24v24H56c-4.416,0-8,3.576-8,8
			s3.584,8,8,8h120v40c0,13.232,10.768,24,24,24h96h48c13.232,0,24-10.768,24-24V88C368,74.768,357.232,64,344,64z M224,136
			c0-4.408,3.584-8,8-8h32c4.416,0,8,3.592,8,8v40h-48V136z M304,280c0,4.416-3.584,8-8,8h-40v-48h8c4.424,0,8-3.576,8-8
			s-3.576-8-8-8h-32c-4.424,0-8,3.576-8,8s3.576,8,8,8h8v48h-40c-4.416,0-8-3.584-8-8v-80c0-4.416,3.584-8,8-8h96
			c4.416,0,8,3.584,8,8V280z M352,280c0,4.416-3.584,8-8,8h-25.472c0.896-2.512,1.472-5.184,1.472-8v-80c0-13.232-10.768-24-24-24
			h-8v-32h64V280z"/>
	</g>
</g>
<g>
	<g>
		<path d="M136,176H56c-4.416,0-8,3.584-8,8s3.584,8,8,8h80c4.416,0,8-3.584,8-8C144,179.584,140.416,176,136,176z"/>
	</g>
</g>
<g>
</g>
<g>
</g>
<g>
</g>
<g>
</g>
<g>
</g>
<g>
</g>
<g>
</g>
<g>
</g>
<g>
</g>
<g>
</g>
<g>
</g>
<g>
</g>
<g>
</g>
<g>
</g>
<g>
</g>
</svg>
