<?xml version="1.0" encoding="iso-8859-1"?>
<!-- Generator: Adobe Illustrator 19.0.0, SVG Export Plug-In . SVG Version: 6.00 Build 0)  -->
<svg version="1.1" id="Capa_1" xmlns="http://www.w3.org/2000/svg" xmlns:xlink="http://www.w3.org/1999/xlink" x="0px" y="0px"
	 viewBox="0 0 368 368" style="enable-background:new 0 0 368 368;" xml:space="preserve">
<g>
	<g>
		<path d="M310.88,50.696c-0.008-0.008-0.008-0.008-0.008-0.008C276.624,18,231.568,0,184,0c-21,0-41.6,3.52-61.216,10.456h-0.008
			c0,0,0,0-0.008,0C49.336,36.32,0,106.056,0,184c0,13.936,1.6,27.944,4.76,41.624c0,0.008,0,0.008,0,0.016
			c4.648,20.144,12.552,39.144,23.512,56.48c1.808,2.856,3.68,5.656,5.632,8.4c29.184,41.088,73.728,68.432,123.664,75.568
			C166.336,367.352,175.232,368,184,368c33.528,0,66.272-9.056,94.696-26.184c0,0,0,0,0.008-0.008
			C334.616,308.16,368,249.168,368,184C368,133.12,347.712,85.784,310.88,50.696z M18.872,214.936C16.968,204.696,16,194.328,16,184
			c0-70.096,43.696-132.912,109.056-157.352c0.088,0.048,0.168,0.072,0.256,0.12c0.384,0.2,0.792,0.448,1.192,0.664
			c0.712,0.392,1.424,0.792,2.152,1.256c0.456,0.288,0.904,0.616,1.36,0.928c0.696,0.48,1.384,0.976,2.072,1.528
			c0.472,0.376,0.936,0.792,1.408,1.208c0.656,0.584,1.296,1.2,1.928,1.848c0.456,0.472,0.896,0.968,1.336,1.472
			c0.6,0.704,1.16,1.464,1.712,2.248c0.392,0.56,0.784,1.12,1.152,1.728c0.52,0.864,0.976,1.808,1.424,2.768
			c0.296,0.632,0.608,1.24,0.864,1.912c0.424,1.12,0.736,2.344,1.04,3.576c0.152,0.624,0.36,1.208,0.48,1.864
			c0.352,1.936,0.568,4,0.568,6.232c0,32.952-24.936,39.976-25.72,40.184C105.04,99.096,80,112.84,80,144
			c0,28.168-21.456,50.136-21.648,50.336c-0.016,0.016-0.32,0.304-0.68,0.632c-0.064,0.056-0.104,0.096-0.176,0.16
			c-0.456,0.408-1.144,1.008-1.936,1.68c-0.136,0.112-0.272,0.224-0.416,0.344c-0.856,0.704-1.888,1.528-3.056,2.408
			c-0.2,0.152-0.408,0.312-0.624,0.464c-1.232,0.912-2.608,1.888-4.128,2.896c-0.216,0.144-0.448,0.288-0.672,0.432
			c-1.616,1.048-3.344,2.12-5.232,3.176c-0.136,0.08-0.296,0.152-0.432,0.232c-1.904,1.056-3.944,2.08-6.088,3.056
			c-0.144,0.064-0.272,0.128-0.408,0.192c-2.136,0.952-4.416,1.816-6.76,2.608c-0.336,0.112-0.664,0.232-1,0.344
			c-2.296,0.728-4.688,1.344-7.144,1.832C19.36,214.84,19.112,214.888,18.872,214.936z M151.848,348.872
			c-0.12-0.024-0.232-0.04-0.352-0.056c-4.76-0.928-9.448-2.104-14.072-3.432c-0.752-0.216-1.504-0.416-2.248-0.64
			c-4.472-1.352-8.864-2.896-13.184-4.6c-0.784-0.312-1.56-0.632-2.344-0.952c-4.32-1.792-8.576-3.728-12.72-5.872
			c-0.584-0.304-1.16-0.632-1.736-0.936c-4.32-2.296-8.568-4.728-12.664-7.392c-0.024-0.016-0.056-0.04-0.08-0.056
			c-4.096-2.664-8.04-5.544-11.896-8.56c-0.528-0.408-1.064-0.8-1.584-1.224c-3.64-2.92-7.144-6.008-10.536-9.232
			c-0.624-0.592-1.248-1.184-1.864-1.784c-3.32-3.248-6.52-6.632-9.576-10.168c-0.528-0.608-1.04-1.232-1.56-1.856
			c-3.096-3.68-6.08-7.48-8.872-11.448c-0.072-0.104-0.136-0.216-0.216-0.32C56.672,274.872,68.168,272,80,272
			c39.696,0,72,32.304,72,72C152,345.656,151.952,347.288,151.848,348.872z M167.688,351.08c0.184-2.312,0.312-4.664,0.312-7.08
			c0-48.52-39.48-88-88-88c-14.856,0-29.256,3.744-42.144,10.8c-6.488-11.424-11.672-23.536-15.304-36.24
			c0.24-0.048,0.456-0.136,0.704-0.184c2.944-0.608,5.784-1.36,8.512-2.232c0.48-0.152,0.952-0.312,1.424-0.48
			c2.72-0.92,5.336-1.928,7.808-3.024c0.336-0.152,0.64-0.304,0.976-0.456c2.552-1.168,4.992-2.384,7.248-3.64
			c0.008-0.008,0.016-0.008,0.024-0.016c2.288-1.28,4.384-2.576,6.328-3.848c0.224-0.152,0.464-0.288,0.68-0.44
			c1.816-1.208,3.44-2.36,4.92-3.472c0.256-0.192,0.496-0.368,0.744-0.56c1.392-1.056,2.6-2.024,3.632-2.888
			c0.2-0.168,0.352-0.296,0.536-0.448c0.968-0.824,1.776-1.536,2.352-2.072c0.128-0.12,0.152-0.144,0.256-0.24
			c0.504-0.472,0.864-0.824,0.96-0.92C70.736,204.584,96,178.912,96,144c0-25.944,24.704-31.952,25.944-32.24
			C135.104,108.472,160,92.584,160,56c0-1.976-0.12-3.856-0.312-5.68c-0.064-0.6-0.176-1.168-0.256-1.752
			c-0.168-1.2-0.352-2.384-0.6-3.512c-0.136-0.64-0.304-1.248-0.472-1.872c-0.264-1.016-0.552-2.016-0.872-2.976
			c-0.2-0.6-0.416-1.184-0.632-1.768c-0.36-0.936-0.744-1.832-1.152-2.712c-0.24-0.528-0.48-1.056-0.736-1.56
			c-0.464-0.912-0.96-1.776-1.472-2.624c-0.248-0.408-0.472-0.832-0.728-1.224c-0.696-1.08-1.424-2.104-2.176-3.08
			c-0.096-0.128-0.184-0.264-0.28-0.384c-0.864-1.096-1.76-2.128-2.672-3.104c-0.272-0.296-0.56-0.56-0.84-0.84
			c-0.648-0.664-1.304-1.312-1.968-1.92c-0.104-0.096-0.208-0.208-0.312-0.304C157.368,17.568,170.592,16,184,16
			c38.256,0,74.728,12.744,104.232,36.168c-0.056,0.016-0.112,0.04-0.168,0.056c-0.232,0.072-0.472,0.168-0.704,0.248
			c-1.296,0.432-2.616,0.912-3.952,1.432c-0.496,0.192-0.984,0.392-1.48,0.6c-1.184,0.488-2.376,1.016-3.576,1.576
			c-0.48,0.224-0.944,0.432-1.424,0.672c-1.632,0.808-3.264,1.672-4.896,2.632c-0.216,0.128-0.432,0.28-0.656,0.416
			c-1.408,0.848-2.808,1.768-4.192,2.744c-0.504,0.352-0.992,0.728-1.496,1.104c-1.168,0.872-2.312,1.792-3.44,2.768
			c-0.464,0.392-0.92,0.776-1.376,1.192c-1.52,1.384-3,2.84-4.424,4.424c-0.144,0.16-0.28,0.352-0.424,0.52
			c-1.264,1.44-2.464,2.984-3.624,4.6c-0.4,0.552-0.776,1.136-1.16,1.712c-0.912,1.376-1.784,2.816-2.608,4.312
			c-0.336,0.616-0.688,1.216-1.008,1.848c-1.08,2.12-2.088,4.328-2.96,6.704c-0.048,0.136-0.088,0.28-0.136,0.416
			c-0.816,2.24-1.504,4.624-2.12,7.104c-0.192,0.792-0.36,1.624-0.528,2.448c-0.424,1.992-0.768,4.072-1.048,6.216
			c-0.112,0.88-0.24,1.744-0.328,2.648c-0.296,3.008-0.504,6.12-0.504,9.44c0,53.912-35.952,55.944-40,56c-13.832,0-40,8.36-40,40
			s26.168,40,39.984,40c0.408,0,40.016,0.4,40.016,24c0,3.472,0.152,6.704,0.376,9.816c0.072,0.96,0.176,1.864,0.264,2.792
			c0.208,2.128,0.456,4.176,0.76,6.128c0.144,0.904,0.28,1.808,0.44,2.672c0.376,2.024,0.8,3.936,1.272,5.768
			c0.144,0.568,0.264,1.176,0.424,1.72c0.648,2.312,1.368,4.472,2.144,6.488c0.176,0.456,0.376,0.848,0.552,1.288
			c0.64,1.536,1.296,3,2,4.368c0.288,0.568,0.592,1.112,0.888,1.648c0.656,1.176,1.328,2.288,2.024,3.344
			c0.296,0.448,0.592,0.92,0.896,1.344c0.904,1.28,1.832,2.472,2.776,3.56c0.08,0.096,0.16,0.208,0.24,0.296
			c1.032,1.168,2.072,2.2,3.12,3.152c0.096,0.088,0.184,0.2,0.28,0.28C230.704,348.4,199.224,354.168,167.688,351.08z
			 M273.808,326.024c-0.264-0.136-0.528-0.28-0.792-0.432c-0.152-0.088-0.296-0.16-0.456-0.256c-0.512-0.312-1.032-0.648-1.568-1.04
			c-0.024-0.016-0.048-0.04-0.072-0.056c-0.504-0.368-1.016-0.776-1.528-1.232c-0.168-0.144-0.336-0.312-0.504-0.464
			c-0.376-0.344-0.752-0.704-1.136-1.104c-0.2-0.208-0.392-0.424-0.592-0.64c-0.352-0.392-0.704-0.8-1.048-1.232
			c-0.208-0.256-0.408-0.52-0.616-0.792c-0.344-0.456-0.68-0.944-1.016-1.448c-0.192-0.288-0.392-0.576-0.584-0.888
			c-0.36-0.584-0.712-1.208-1.064-1.848c-0.152-0.28-0.312-0.544-0.456-0.832c-0.496-0.96-0.976-1.984-1.432-3.08
			c-0.008-0.024-0.016-0.048-0.024-0.072c-0.44-1.064-0.856-2.208-1.256-3.416c-0.128-0.392-0.248-0.816-0.368-1.224
			c-0.264-0.88-0.528-1.776-0.768-2.72c-0.128-0.52-0.248-1.064-0.376-1.6c-0.208-0.912-0.408-1.856-0.592-2.84
			c-0.112-0.608-0.216-1.224-0.32-1.856c-0.16-1.008-0.304-2.064-0.44-3.136c-0.08-0.664-0.168-1.32-0.24-2.008
			c-0.12-1.208-0.216-2.48-0.304-3.776c-0.04-0.624-0.096-1.216-0.128-1.856c-0.072-1.96-0.128-4.008-0.128-6.176
			c0-31.64-36.632-40-55.952-40c-4.016-0.048-24.048-1.416-24.048-24c0-22.584,20.032-23.952,24-24c0.56,0,56-0.824,56-72
			c0-2.592,0.128-5.056,0.352-7.416c0.072-0.808,0.224-1.536,0.32-2.32c0.192-1.504,0.384-3.016,0.664-4.424
			c0.168-0.864,0.408-1.656,0.608-2.488c0.296-1.224,0.592-2.464,0.952-3.616c0.264-0.824,0.568-1.592,0.864-2.384
			c0.392-1.056,0.776-2.112,1.216-3.096c0.344-0.768,0.72-1.48,1.088-2.208c0.464-0.92,0.936-1.832,1.44-2.688
			c0.408-0.696,0.848-1.352,1.288-2.008c0.536-0.8,1.08-1.6,1.648-2.344c0.472-0.616,0.952-1.2,1.448-1.784
			c0.6-0.704,1.208-1.392,1.832-2.048c0.52-0.544,1.04-1.064,1.576-1.568c0.648-0.616,1.312-1.208,1.984-1.784
			c0.552-0.464,1.104-0.928,1.672-1.36c0.696-0.536,1.408-1.048,2.12-1.544c0.576-0.392,1.144-0.792,1.728-1.16
			c0.736-0.464,1.48-0.896,2.224-1.32c0.584-0.328,1.168-0.672,1.76-0.976c0.768-0.4,1.544-0.76,2.312-1.12
			c0.584-0.272,1.16-0.552,1.744-0.8c0.808-0.344,1.616-0.648,2.432-0.952c0.544-0.208,1.096-0.432,1.64-0.616
			c0.872-0.304,1.728-0.56,2.592-0.824c0.48-0.144,0.96-0.312,1.44-0.44c1.032-0.288,2.04-0.536,3.048-0.768
			c0.288-0.072,0.592-0.152,0.88-0.216c1.28-0.288,2.528-0.528,3.752-0.744C334.496,96.728,352,138.84,352,184
			C352,242.192,322.848,294.984,273.808,326.024z"/>
	</g>
</g>
<g>
</g>
<g>
</g>
<g>
</g>
<g>
</g>
<g>
</g>
<g>
</g>
<g>
</g>
<g>
</g>
<g>
</g>
<g>
</g>
<g>
</g>
<g>
</g>
<g>
</g>
<g>
</g>
<g>
</g>
</svg>
