<?xml version="1.0" encoding="iso-8859-1"?>
<!-- Generator: Adobe Illustrator 19.0.0, SVG Export Plug-In . SVG Version: 6.00 Build 0)  -->
<svg version="1.1" id="Capa_1" xmlns="http://www.w3.org/2000/svg" xmlns:xlink="http://www.w3.org/1999/xlink" x="0px" y="0px"
	 viewBox="0 0 464 464" style="enable-background:new 0 0 464 464;" xml:space="preserve">
<g>
	<g>
		<path d="M312,128H152c-13.232,0-24,10.768-24,24v160c0,13.232,10.768,24,24,24h160c13.232,0,24-10.768,24-24V152
			C336,138.768,325.232,128,312,128z M320,312c0,4.416-3.584,8-8,8H152c-4.408,0-8-3.584-8-8V152c0-4.416,3.592-8,8-8h160
			c4.416,0,8,3.584,8,8V312z"/>
	</g>
</g>
<g>
	<g>
		<path d="M456,176c4.424,0,8-3.576,8-8c0-4.424-3.576-8-8-8h-56v-48h56c4.424,0,8-3.576,8-8s-3.576-8-8-8h-56.808
			C396,80.352,383.648,68,368,64.808V8c0-4.424-3.576-8-8-8s-8,3.576-8,8v56h-48V8c0-4.424-3.576-8-8-8s-8,3.576-8,8v56h-48V8
			c0-4.424-3.584-8-8-8c-4.416,0-8,3.576-8,8v56h-48V8c0-4.424-3.584-8-8-8s-8,3.576-8,8v56h-48V8c0-4.424-3.584-8-8-8s-8,3.576-8,8
			v56.808C80.352,68,68,80.352,64.808,96H8c-4.416,0-8,3.576-8,8s3.584,8,8,8h56v48H8c-4.416,0-8,3.576-8,8s3.584,8,8,8h56v48H8
			c-4.416,0-8,3.576-8,8s3.584,8,8,8h56v48H8c-4.416,0-8,3.576-8,8s3.584,8,8,8h56v48H8c-4.416,0-8,3.576-8,8s3.584,8,8,8h56.808
			C68,383.648,80.352,396,96,399.192V456c0,4.424,3.584,8,8,8s8-3.576,8-8v-56h48v56c0,4.424,3.584,8,8,8s8-3.576,8-8v-56h48v56
			c0,4.424,3.584,8,8,8s8-3.576,8-8v-56h48v56c0,4.424,3.576,8,8,8s8-3.576,8-8v-56h48v56c0,4.424,3.576,8,8,8s8-3.576,8-8v-56.808
			C383.648,396,396,383.648,399.192,368H456c4.424,0,8-3.576,8-8s-3.576-8-8-8h-56v-48h56c4.424,0,8-3.576,8-8s-3.576-8-8-8h-56v-48
			h56c4.424,0,8-3.576,8-8s-3.576-8-8-8h-56v-48H456z M384,360c0,13.232-10.768,24-24,24H104c-13.232,0-24-10.768-24-24V104
			c0-13.232,10.768-24,24-24h256c13.232,0,24,10.768,24,24V360z"/>
	</g>
</g>
<g>
	<g>
		<path d="M205.656,162.344c-3.128-3.128-8.184-3.128-11.312,0l-32,32c-3.128,3.128-3.128,8.184,0,11.312
			c1.56,1.56,3.608,2.344,5.656,2.344c2.048,0,4.096-0.784,5.656-2.344l32-32C208.784,170.528,208.784,165.472,205.656,162.344z"/>
	</g>
</g>
<g>
	<g>
		<path d="M237.656,194.344c-3.128-3.128-8.184-3.128-11.312,0l-64,64c-3.128,3.128-3.128,8.184,0,11.312
			c1.56,1.56,3.608,2.344,5.656,2.344c2.048,0,4.096-0.784,5.656-2.344l64-64C240.784,202.528,240.784,197.472,237.656,194.344z"/>
	</g>
</g>
<g>
</g>
<g>
</g>
<g>
</g>
<g>
</g>
<g>
</g>
<g>
</g>
<g>
</g>
<g>
</g>
<g>
</g>
<g>
</g>
<g>
</g>
<g>
</g>
<g>
</g>
<g>
</g>
<g>
</g>
</svg>
