<?xml version="1.0" encoding="iso-8859-1"?>
<!-- Generator: Adobe Illustrator 19.0.0, SVG Export Plug-In . SVG Version: 6.00 Build 0)  -->
<svg version="1.1" id="Capa_1" xmlns="http://www.w3.org/2000/svg" xmlns:xlink="http://www.w3.org/1999/xlink" x="0px" y="0px"
	 viewBox="0 0 384 384" style="enable-background:new 0 0 384 384;" xml:space="preserve">
<g>
	<g>
		
			<rect x="218.015" y="57.533" transform="matrix(0.3682 -0.9298 0.9298 0.3682 91.9805 266.4209)" width="48.002" height="16.001"/>
	</g>
</g>
<g>
	<g>
		<rect x="251.648" y="12.865" transform="matrix(0.3673 -0.9301 0.9301 0.3673 144.8757 254.6975)" width="16" height="15.992"/>
	</g>
</g>
<g>
	<g>
		<polygon points="384,184 211.544,184 277.656,117.888 266.344,106.576 200,172.92 200,0 184,0 184,172.688 117.656,106.344 
			106.344,117.656 172.688,184 0,184 0,200 172.92,200 106.344,266.576 117.656,277.888 184,211.544 184,384 200,384 200,211.312 
			266.344,277.656 277.656,266.344 211.312,200 384,200 		"/>
	</g>
</g>
<g>
	<g>
		<rect x="292.795" y="129.94" transform="matrix(0.9177 -0.3973 0.3973 0.9177 -28.728 137.2134)" width="47.993" height="16"/>
	</g>
</g>
<g>
	<g>
		<rect x="352.802" y="110.875" transform="matrix(0.9176 -0.3975 0.3975 0.9176 -17.5234 153.2139)" width="16" height="16"/>
	</g>
</g>
<g>
	<g>
		<rect x="310.455" y="218.006" transform="matrix(0.3678 -0.9299 0.9299 0.3678 -23.7163 449.1277)" width="16" height="48"/>
	</g>
</g>
<g>
	<g>
		<rect x="355.1" y="251.621" transform="matrix(0.3673 -0.9301 0.9301 0.3673 -11.7437 501.9785)" width="15.992" height="16"/>
	</g>
</g>
<g>
	<g>
		<rect x="238.058" y="292.807" transform="matrix(0.9176 -0.3975 0.3975 0.9176 -105.6547 123.912)" width="16" height="47.992"/>
	</g>
</g>
<g>
	<g>
		<rect x="257.099" y="352.819" transform="matrix(0.9176 -0.3975 0.3975 0.9176 -121.5822 135.1076)" width="16" height="16"/>
	</g>
</g>
<g>
	<g>
		
			<rect x="118.025" y="310.502" transform="matrix(0.3682 -0.9298 0.9298 0.3682 -206.3943 333.2846)" width="48.002" height="16.001"/>
	</g>
</g>
<g>
	<g>
		<rect x="116.337" y="355.096" transform="matrix(0.3673 -0.9301 0.9301 0.3673 -259.0443 345.3737)" width="16" height="15.992"/>
	</g>
</g>
<g>
	<g>
		<rect x="43.164" y="238.058" transform="matrix(0.9176 -0.3975 0.3975 0.9176 -92.2741 46.9707)" width="47.992" height="16"/>
	</g>
</g>
<g>
	<g>
		<rect x="15.147" y="257.122" transform="matrix(0.9176 -0.3975 0.3975 0.9176 -103.4786 31.0464)" width="16" height="16"/>
	</g>
</g>
<g>
	<g>
		<rect x="57.529" y="117.953" transform="matrix(0.3678 -0.9299 0.9299 0.3678 -90.5752 150.6783)" width="16" height="48"/>
	</g>
</g>
<g>
	<g>
		<rect x="12.899" y="116.328" transform="matrix(0.3676 -0.93 0.93 0.3676 -102.4088 98.0579)" width="15.992" height="16"/>
	</g>
</g>
<g>
	<g>
		<rect x="129.923" y="43.222" transform="matrix(0.9176 -0.3975 0.3975 0.9176 -15.3544 60.3632)" width="16" height="47.992"/>
	</g>
</g>
<g>
	<g>
		<rect x="110.859" y="15.165" transform="matrix(0.9176 -0.3975 0.3975 0.9176 0.5857 49.155)" width="16" height="16"/>
	</g>
</g>
<g>
	<g>
		<path d="M72.12,48.232c-13.168,0-23.88,10.712-23.88,23.88C48.24,85.28,58.944,96,72.12,96C85.296,96,96,85.288,96,72.12
			C96,58.952,85.288,48.232,72.12,48.232z M72.12,80c-4.344,0-7.88-3.536-7.88-7.88s3.536-7.88,7.88-7.88S80,67.776,80,72.12
			S76.464,80,72.12,80z"/>
	</g>
</g>
<g>
	<g>
		<path d="M312.12,288.24c-13.168,0-23.888,10.704-23.888,23.88c0,13.168,10.712,23.88,23.88,23.88
			C325.28,336,336,325.288,336,312.12C336,298.952,325.288,288.24,312.12,288.24z M312.12,320c-4.344,0-7.88-3.536-7.88-7.88
			s3.536-7.88,7.88-7.88s7.88,3.536,7.88,7.88S316.464,320,312.12,320z"/>
	</g>
</g>
<g>
	<g>
		<path d="M72.12,288.24c-13.168,0-23.88,10.712-23.88,23.88c0,13.168,10.704,23.88,23.88,23.88C85.288,336,96,325.288,96,312.12
			C96,298.952,85.288,288.24,72.12,288.24z M72.12,320c-4.344,0-7.88-3.536-7.88-7.88s3.536-7.888,7.88-7.888s7.88,3.536,7.88,7.88
			S76.464,320,72.12,320z"/>
	</g>
</g>
<g>
	<g>
		<path d="M312.12,48.24c-13.168,0-23.88,10.712-23.88,23.88c0,13.168,10.704,23.88,23.88,23.88C325.296,96,336,85.288,336,72.12
			C336,58.952,325.288,48.24,312.12,48.24z M312.12,80c-4.344,0-7.888-3.536-7.888-7.88s3.536-7.88,7.88-7.88S320,67.776,320,72.12
			S316.464,80,312.12,80z"/>
	</g>
</g>
<g>
</g>
<g>
</g>
<g>
</g>
<g>
</g>
<g>
</g>
<g>
</g>
<g>
</g>
<g>
</g>
<g>
</g>
<g>
</g>
<g>
</g>
<g>
</g>
<g>
</g>
<g>
</g>
<g>
</g>
</svg>
