<?xml version="1.0" encoding="iso-8859-1"?>
<!-- Generator: Adobe Illustrator 19.0.0, SVG Export Plug-In . SVG Version: 6.00 Build 0)  -->
<svg version="1.1" id="Capa_1" xmlns="http://www.w3.org/2000/svg" xmlns:xlink="http://www.w3.org/1999/xlink" x="0px" y="0px"
	 viewBox="0 0 368 368" style="enable-background:new 0 0 368 368;" xml:space="preserve">
<g>
	<g>
		<path d="M248,160c-17.944,0-32,10.544-32,24s14.056,24,32,24c17.944,0,32-10.544,32-24S265.944,160,248,160z M248,192
			c-9.768,0-16-4.736-16-8c0-3.264,6.232-8,16-8s16,4.736,16,8C264,187.264,257.768,192,248,192z"/>
	</g>
</g>
<g>
	<g>
		<path d="M364.912,150.576c0-0.016-0.008-0.032-0.008-0.048c0-0.016,0-0.032-0.008-0.04c0-0.008-0.008-0.016-0.008-0.024
			c-6.912-38.008-26.32-73.608-54.664-100.264c-0.008-0.008-0.008-0.016-0.016-0.024C275.944,17.824,231.12,0,184,0
			S92.056,17.824,57.792,50.184C42.4,64.728,29.736,81.616,20.176,100.336c-0.088,0.176-0.168,0.368-0.256,0.544
			c0,0.008-0.008,0.008-0.008,0.016c-7.936,15.512-13.608,32.208-16.808,49.592C1.048,161.2,0,172.48,0,184
			c0,5.768,0.264,11.464,0.784,17.056c0.52,5.6,1.296,11.096,2.32,16.456c0,0.016,0.016,0.024,0.016,0.04
			c3.248,17.616,8.984,34.48,17.04,50.088c9.576,18.744,22.24,35.632,37.632,50.176C92.056,350.176,136.88,368,184,368
			s91.944-17.824,126.208-50.184c0.008-0.008,0.008-0.016,0.016-0.024c3.536-3.328,6.936-6.792,10.184-10.384
			c22.832-25.216,38.464-56.672,44.48-89.904c0-0.016,0-0.032,0.008-0.04c0-0.016,0.008-0.032,0.008-0.04s0-0.016,0-0.016
			C366.952,206.728,368,195.488,368,184C368,172.48,366.952,161.2,364.912,150.576z M184,16c35.76,0,70.064,11.24,98.592,32H85.408
			C113.936,27.24,148.24,16,184,16z M21.24,142.568c0.288-1.144,0.624-2.264,0.936-3.4c0.688-2.48,1.416-4.944,2.208-7.384
			c0.408-1.248,0.832-2.496,1.272-3.736c0.848-2.408,1.768-4.784,2.728-7.144c0.448-1.096,0.872-2.208,1.344-3.288
			c0.824-1.896,1.744-3.752,2.64-5.616H152c4.424,0,8-3.584,8-8s-3.576-8-8-8H40.96c7.16-11.632,15.712-22.352,25.544-32h235
			c2.952,2.88,5.768,5.88,8.496,8.968c0.888,1,1.696,2.064,2.56,3.088c1.784,2.128,3.568,4.264,5.248,6.48
			c0.952,1.256,1.84,2.568,2.76,3.848c1.48,2.064,2.944,4.144,4.328,6.272c0.904,1.384,1.744,2.808,2.608,4.216
			c1.288,2.112,2.544,4.24,3.736,6.408c0.8,1.464,1.568,2.944,2.328,4.424c1.12,2.2,2.208,4.416,3.232,6.664
			c0.688,1.504,1.352,3.016,2,4.536c0.968,2.304,1.88,4.632,2.744,6.976c0.56,1.52,1.12,3.032,1.64,4.568
			c0.816,2.416,1.536,4.856,2.24,7.312c0.432,1.512,0.888,3.016,1.28,4.544c0.144,0.56,0.24,1.128,0.376,1.696h-30.608
			c-6.728-9.736-26.672-32-68.456-32s-61.728,22.264-68.456,32H20.92C21.032,143.528,21.12,143.04,21.24,142.568z M184,352
			c-35.76,0-70.064-11.24-98.592-32h197.184C254.064,340.76,219.76,352,184,352z M346.72,225.648
			c-0.432,1.632-0.92,3.24-1.384,4.848c-0.672,2.328-1.36,4.656-2.128,6.952c-0.552,1.632-1.152,3.248-1.752,4.872
			c-0.832,2.24-1.696,4.464-2.624,6.664c-0.672,1.6-1.376,3.192-2.104,4.768c-0.992,2.168-2.04,4.312-3.12,6.44
			c-0.784,1.544-1.576,3.08-2.416,4.592c-1.168,2.12-2.4,4.208-3.664,6.28c-0.88,1.44-1.744,2.896-2.664,4.312
			c-1.368,2.112-2.824,4.16-4.288,6.208c-0.928,1.296-1.824,2.616-2.792,3.896c-1.672,2.2-3.44,4.328-5.216,6.44
			c-0.864,1.032-1.688,2.104-2.584,3.12c-2.72,3.088-5.544,6.088-8.488,8.968H66.504c-9.832-9.64-18.384-20.36-25.552-32H152
			c4.424,0,8-3.584,8-8c0-4.416-3.576-8-8-8H32.36c-0.904-1.88-1.832-3.744-2.656-5.664c-0.448-1.048-0.856-2.112-1.288-3.168
			c-0.984-2.408-1.92-4.84-2.784-7.296c-0.416-1.192-0.824-2.392-1.216-3.592c-0.824-2.528-1.584-5.08-2.288-7.648
			c-0.288-1.048-0.6-2.088-0.864-3.144c-0.128-0.496-0.208-1-0.328-1.496H179.56c6.728,9.736,26.672,32,68.456,32
			s61.728-22.264,68.456-32h30.616C346.952,224.544,346.856,225.104,346.72,225.648z M351.36,198.112
			c-0.12,1.416-0.304,2.808-0.456,4.208c-0.208,1.92-0.528,3.792-0.808,5.68H312c-3.032,0-5.8,1.712-7.16,4.424
			C304.704,212.696,290.56,240,248,240c-42.072,0-56.288-26.504-56.84-27.576C189.8,209.712,187.032,208,184,208H17.904
			c-0.28-1.88-0.584-3.736-0.8-5.648c-0.16-1.416-0.344-2.824-0.464-4.256C16.256,193.456,16,188.768,16,184
			s0.256-9.456,0.64-14.104c0.12-1.44,0.304-2.84,0.464-4.264c0.208-1.904,0.52-3.76,0.792-5.632H184c3.032,0,5.8-1.712,7.16-4.424
			C191.296,155.304,205.44,128,248,128c42.072,0,56.288,26.504,56.84,27.576c1.36,2.712,4.128,4.424,7.16,4.424h38.096
			c0.28,1.88,0.584,3.736,0.8,5.648c0.16,1.416,0.344,2.824,0.464,4.256c0.384,4.64,0.64,9.328,0.64,14.096
			S351.744,193.464,351.36,198.112z"/>
	</g>
</g>
<g>
</g>
<g>
</g>
<g>
</g>
<g>
</g>
<g>
</g>
<g>
</g>
<g>
</g>
<g>
</g>
<g>
</g>
<g>
</g>
<g>
</g>
<g>
</g>
<g>
</g>
<g>
</g>
<g>
</g>
</svg>
