<svg height="368pt" viewBox="-64 0 368 368" width="368pt" xmlns="http://www.w3.org/2000/svg"><path d="m48 248v64c0 4.425781 3.574219 8 8 8h128c4.425781 0 8-3.574219 8-8v-64c0-4.425781-3.574219-8-8-8h-128c-4.425781 0-8 3.574219-8 8zm16 8h112v48h-112zm0 0"/><path d="m232 64c4.425781 0 8-3.585938 8-8v-48c0-4.414062-3.574219-8-8-8h-144c-4.425781 0-8 3.585938-8 8v184h-72c-4.425781 0-8 3.574219-8 8v160c0 4.425781 3.574219 8 8 8h224c4.425781 0 8-3.574219 8-8v-160c0-4.425781-3.574219-8-8-8h-72v-32h72c4.425781 0 8-3.585938 8-8v-48c0-4.414062-3.574219-8-8-8h-72v-32zm-72-48h64v32h-64zm64 192v144h-208v-144h72c4.425781 0 8-3.574219 8-8v-184h48v184c0 4.425781 3.574219 8 8 8zm0-96v32h-64v-32zm0 0"/></svg>