<?xml version="1.0" encoding="iso-8859-1"?>
<!-- Generator: Adobe Illustrator 19.0.0, SVG Export Plug-In . SVG Version: 6.00 Build 0)  -->
<svg version="1.1" id="Capa_1" xmlns="http://www.w3.org/2000/svg" xmlns:xlink="http://www.w3.org/1999/xlink" x="0px" y="0px"
	 viewBox="0 0 368 368" style="enable-background:new 0 0 368 368;" xml:space="preserve">
<g>
	<g>
		<path d="M344,176h-24v-56c0-22.056-17.944-40-40-40h-40V24c0-13.232-10.768-24-24-24H24C10.768,0,0,10.768,0,24v320
			c0,13.232,10.768,24,24,24h112h224c4.424,0,8-3.584,8-8V200C368,186.768,357.232,176,344,176z M280,96c13.232,0,24,10.768,24,24
			v56H192v-56c0-13.232,10.768-24,24-24H280z M16,24c0-4.408,3.584-8,8-8h192c4.416,0,8,3.592,8,8v24H16V24z M128,200v104H88
			c-4.424,0-8,3.584-8,8c0,4.416,3.576,8,8,8h40v32H24c-4.416,0-8-3.592-8-8V64h208v16h-8c-22.056,0-40,17.944-40,40v56h-24
			C138.768,176,128,186.768,128,200z M352,352H144V200c0-4.408,3.584-8,8-8h192c4.416,0,8,3.584,8,8V352z"/>
	</g>
</g>
<g>
	<g>
		<path d="M248,224c-13.232,0-24,10.768-24,24c0,10.416,6.712,19.216,16,22.528V312c0,4.416,3.576,8,8,8s8-3.584,8-8v-41.472
			c9.288-3.312,16-12.112,16-22.528C272,234.768,261.232,224,248,224z M248,256c-4.416,0-8-3.592-8-8c0-4.408,3.584-8,8-8
			c4.416,0,8,3.592,8,8C256,252.408,252.416,256,248,256z"/>
	</g>
</g>
<g>
</g>
<g>
</g>
<g>
</g>
<g>
</g>
<g>
</g>
<g>
</g>
<g>
</g>
<g>
</g>
<g>
</g>
<g>
</g>
<g>
</g>
<g>
</g>
<g>
</g>
<g>
</g>
<g>
</g>
</svg>
