<svg height="368pt" viewBox="0 0 368 368" width="368pt" xmlns="http://www.w3.org/2000/svg"><path d="m360 0h-352c-4.414062 0-8 3.585938-8 8v224c0 4.414062 3.585938 8 8 8h168v48.808594c-15.648438 3.191406-28 15.542968-31.191406 31.191406h-136.808594c-4.414062 0-8 3.585938-8 8s3.585938 8 8 8h136.808594c3.71875 18.230469 19.871094 32 39.191406 32s35.472656-13.769531 39.191406-32h136.808594c4.414062 0 8-3.585938 8-8s-3.585938-8-8-8h-136.808594c-3.191406-15.648438-15.542968-28-31.191406-31.191406v-48.808594h168c4.414062 0 8-3.585938 8-8v-224c0-4.414062-3.585938-8-8-8zm-152 328c0 13.230469-10.769531 24-24 24s-24-10.769531-24-24 10.769531-24 24-24 24 10.769531 24 24zm-96-104v-48h144v48zm0-64v-48h144v48zm-96-48h80v48h-80zm256 0h80v48h-80zm-256-96h336v80h-336zm0 160h80v48h-80zm336 48h-80v-48h80zm0 0"/><path d="m320 56c0-4.414062-3.585938-8-8-8h-256c-4.414062 0-8 3.585938-8 8s3.585938 8 8 8h256c4.414062 0 8-3.585938 8-8zm0 0"/></svg>