<svg height="368pt" viewBox="0 0 368 368" width="368pt" xmlns="http://www.w3.org/2000/svg"><path d="m168 304h-96c-4.414062 0-8 3.574219-8 8s3.585938 8 8 8h96c4.414062 0 8-3.574219 8-8s-3.585938-8-8-8zm0 0"/><path d="m360 128h-120v-88c0-22.054688-17.945312-40-40-40h-160c-22.054688 0-40 17.945312-40 40v288c0 22.054688 17.945312 40 40 40h160c22.054688 0 40-17.945312 40-40v-120h120c4.414062 0 8-3.574219 8-8v-64c0-4.414062-3.585938-8-8-8zm-344-88c0-13.230469 10.769531-24 24-24h160c13.230469 0 24 10.769531 24 24v24h-208zm208 288c0 13.230469-10.769531 24-24 24h-160c-13.230469 0-24-10.769531-24-24v-248h208v48h-152c-4.414062 0-8 3.585938-8 8v64c0 4.425781 3.585938 8 8 8h56v40c0 3.128906 1.824219 5.960938 4.65625 7.265625 1.070312.496094 2.207031.734375 3.34375.734375 1.871094 0 3.726562-.65625 5.207031-1.929688l53.753907-46.070312h29.039062zm128-136h-160c-1.910156 0-3.761719.679688-5.207031 1.929688l-42.792969 36.679687v-30.609375c0-4.425781-3.585938-8-8-8h-56v-48h272zm0 0"/></svg>