<?xml version="1.0" encoding="utf-8"?>
<!-- Generator: Adobe Illustrator 19.2.1, SVG Export Plug-In . SVG Version: 6.00 Build 0)  -->
<svg xmlns="http://www.w3.org/2000/svg" xmlns:xlink="http://www.w3.org/1999/xlink" version="1.1" id="Layer" x="0px" y="0px"  width="512" height="512" viewBox="0 0 64 64" enable-background="new 0 0 64 64" xml:space="preserve" preserveAspectRatio="none">
<path d="M51.71,41.321C52.503,40.435,53,39.279,53,38c0-2.414-1.721-4.434-4-4.899V22c0-0.553-0.447-1-1-1h-9.101  c-0.349-1.71-1.58-3.089-3.189-3.679C36.503,16.435,37,15.279,37,14c0-2.757-2.243-5-5-5s-5,2.243-5,5  c0,1.279,0.497,2.435,1.29,3.321c-1.609,0.59-2.841,1.969-3.189,3.679H16c-0.552,0-1,0.447-1,1v11.101c-2.279,0.465-4,2.484-4,4.899  c0,1.279,0.497,2.435,1.29,3.321C10.377,42.023,9,43.846,9,46v8c0,0.553,0.448,1,1,1h12c0.552,0,1-0.447,1-1v-3h18v3  c0,0.553,0.447,1,1,1h12c0.553,0,1-0.447,1-1v-8C55,43.846,53.623,42.023,51.71,41.321z M51,38c0,1.654-1.346,3-3,3s-3-1.346-3-3  s1.346-3,3-3S51,36.346,51,38z M32,11c1.654,0,3,1.346,3,3s-1.346,3-3,3s-3-1.346-3-3S30.346,11,32,11z M30,19h4  c1.654,0,3,1.346,3,3v7H27v-7C27,20.346,28.346,19,30,19z M16,35c1.654,0,3,1.346,3,3s-1.346,3-3,3s-3-1.346-3-3S14.346,35,16,35z   M21,53H11v-7c0-1.654,1.346-3,3-3h4c1.654,0,3,1.346,3,3V53z M23,49v-3c0-2.154-1.377-3.977-3.29-4.679  C20.503,40.435,21,39.279,21,38c0-2.414-1.721-4.434-4-4.899V23h8v7c0,0.553,0.448,1,1,1h12c0.553,0,1-0.447,1-1v-7h8v10.101  c-2.279,0.465-4,2.484-4,4.899c0,1.279,0.497,2.435,1.29,3.321C42.377,42.023,41,43.846,41,46v3H23z M53,53H43v-7  c0-1.654,1.346-3,3-3h4c1.654,0,3,1.346,3,3V53z"/>
</svg>
