<?xml version="1.0" encoding="iso-8859-1"?>
<!-- Generator: Adobe Illustrator 19.0.0, SVG Export Plug-In . SVG Version: 6.00 Build 0)  -->
<svg version="1.1" id="Capa_1" xmlns="http://www.w3.org/2000/svg" xmlns:xlink="http://www.w3.org/1999/xlink" x="0px" y="0px"
	 viewBox="0 0 368 368" style="enable-background:new 0 0 368 368;" xml:space="preserve">
<g>
	<g>
		<path d="M264,256h-24v-29.864c39.048-20.672,64-61.784,64-106.136C304,53.832,250.168,0,184,0S64,53.832,64,120
			c0,44.344,24.96,85.456,64,106.136V256h-24c-4.416,0-8,3.584-8,8c0,4.416,3.584,8,8,8h24v24c0,10.416,6.712,19.216,16,22.528V344
			c0,13.232,10.768,24,24,24h32c13.232,0,24-10.768,24-24v-25.472c9.288-3.312,16-12.112,16-22.528v-24h24c4.424,0,8-3.584,8-8
			C272,259.584,268.424,256,264,256z M208,344c0,4.408-3.584,8-8,8h-32c-4.408,0-8-3.592-8-8v-24h48V344z M224,296
			c0,4.408-3.584,8-8,8h-64c-4.408,0-8-3.592-8-8v-24h80V296z M228.56,213.976c-2.784,1.328-4.56,4.136-4.56,7.224V256h-32v-80h24
			c4.424,0,8-3.584,8-8v-24h8c4.424,0,8-3.584,8-8s-3.576-8-8-8h-16c-4.424,0-8,3.584-8,8v24h-48v-24c0-4.416-3.584-8-8-8h-16
			c-4.416,0-8,3.584-8,8s3.584,8,8,8h8v24c0,4.416,3.584,8,8,8h24v80h-32v-34.8c0-3.088-1.776-5.896-4.56-7.224
			C103.336,196.8,80,159.912,80,120c0-57.344,46.656-104,104-104s104,46.656,104,104C288,159.912,264.672,196.8,228.56,213.976z"/>
	</g>
</g>
<g>
</g>
<g>
</g>
<g>
</g>
<g>
</g>
<g>
</g>
<g>
</g>
<g>
</g>
<g>
</g>
<g>
</g>
<g>
</g>
<g>
</g>
<g>
</g>
<g>
</g>
<g>
</g>
<g>
</g>
</svg>
