<svg xmlns="http://www.w3.org/2000/svg" xmlns:xlink="http://www.w3.org/1999/xlink" width="27.896" height="29.035" viewBox="0 0 27.896 29.035"><defs><style>.a{fill:none;}.b{clip-path:url(#a);}.c{fill:#fff;}.d{fill:#e67c43;}</style><clipPath id="a"><rect class="a" width="27.895" height="29.035"/></clipPath></defs><g class="b"><g transform="translate(0 1.156)"><path class="c" d="M376.77,289.771a.045.045,0,0,1-.011-.008h0l-10.523-10.521h0l-.006-.008a2.793,2.793,0,0,0-3.95,3.95s.006.006.008.008h0l8.593,8.591-8.593,8.593h0s-.008,0-.008.007a2.793,2.793,0,0,0,3.95,3.95l.006-.006h0L376.759,293.8h0l.011-.007a2.886,2.886,0,0,0,0-4.023Z" transform="translate(-361.46 -278.414)"/><path class="c" d="M376.77,289.771a.045.045,0,0,1-.011-.008h0l-10.523-10.521h0l-.006-.008a2.793,2.793,0,0,0-3.95,3.95s.006.006.008.008h0l8.593,8.591-8.593,8.593h0s-.008,0-.008.007a2.793,2.793,0,0,0,3.95,3.95l.006-.006h0L376.759,293.8h0l.011-.007a2.886,2.886,0,0,0,0-4.023Z" transform="translate(-361.46 -278.414)"/></g><rect class="d" width="13.454" height="5.587" rx="2.794" transform="translate(18.344 15.571) rotate(45)"/><rect class="d" width="13.454" height="5.587" rx="2.794" transform="translate(14.431 9.513) rotate(-45)"/></g></svg>