<?xml version="1.0" encoding="UTF-8" standalone="no"?>
<!DOCTYPE svg PUBLIC "-//W3C//DTD SVG 1.1//EN" "http://www.w3.org/Graphics/SVG/1.1/DTD/svg11.dtd">
<svg width="100%" height="100%" viewBox="0 0 1280 1280" version="1.1" xmlns="http://www.w3.org/2000/svg" xmlns:xlink="http://www.w3.org/1999/xlink" xml:space="preserve" xmlns:serif="http://www.serif.com/" style="fill-rule:evenodd;clip-rule:evenodd;stroke-linejoin:round;stroke-miterlimit:2;">
    <g id="g3001" transform="matrix(1.25,0,0,-1.25,-303.79,1457.41)">
        <g transform="matrix(3.56279,0,0,-7.5903,-177.168,2471.7)">
            <ellipse cx="261.649" cy="239.486" rx="139.217" ry="65.347" style="fill:rgb(255,0,0);fill-opacity:0.8;"/>
        </g>
        <g id="rect2987" transform="matrix(1,0,0,-1,0,0)">
            <rect x="243.032" y="-1165.93" width="1024" height="1024" style="fill:none;"/>
        </g>
        <g transform="matrix(7.37764,0,0,7.37764,-2238.32,-7114.56)">
            <g transform="matrix(0.8,0,0,-0.8,243.032,1165.93)">
                <path d="M139.911,155.55L132.215,126.828L139.875,126.828L147.57,155.55L139.911,155.55" style="fill:white;fill-rule:nonzero;"/>
            </g>
            <g transform="matrix(0.8,0,0,-0.8,243.032,1165.93)">
                <path d="M165.428,155.55L157.309,133.492L157.002,133.492L157.462,155.55L149.803,155.55L149.803,126.828L162.748,126.828L170.981,148.886L171.287,148.886L170.828,126.828L178.487,126.828L178.487,155.55L165.428,155.55" style="fill:white;fill-rule:nonzero;"/>
            </g>
            <g transform="matrix(0.8,0,0,-0.8,243.032,1165.93)">
                <path d="M201.044,137.972C201.044,136.172 200.738,134.986 200.125,134.334C199.551,133.758 198.593,133.492 197.176,133.492L190.474,133.492L190.474,148.886L197.176,148.886C199.742,148.886 201.044,147.241 201.044,143.984L201.044,137.972ZM206.673,152.715C205.065,154.593 202.307,155.55 198.402,155.55L182.815,155.55L182.815,126.828L197.367,126.828C201.426,126.828 204.375,127.67 206.176,129.355C208.013,131.079 208.934,133.951 208.934,137.972L208.934,143.984C208.934,148.043 208.167,150.956 206.673,152.715" style="fill:white;fill-rule:nonzero;"/>
            </g>
            <g transform="matrix(0.8,0,0,-0.8,243.032,1165.93)">
                <path d="M216.723,155.55L209.03,126.828L216.685,126.828L224.381,155.55L216.723,155.55" style="fill:white;fill-rule:nonzero;"/>
            </g>
            <g transform="matrix(0.8,0,0,-0.8,243.032,1165.93)">
                <path d="M249.49,149.958C249.146,151.452 248.379,152.715 247.231,153.636C246.044,154.593 244.627,155.244 242.902,155.55C241.945,155.703 240.337,155.78 238.078,155.78C233.329,155.78 230.111,155.282 228.389,154.287C225.823,152.793 224.559,149.653 224.559,144.904L224.559,137.474C224.559,133.071 225.746,130.045 228.159,128.475C230.035,127.21 233.368,126.598 238.078,126.598C242.481,126.598 245.393,127.096 246.886,128.091C248.801,129.355 249.797,131.999 249.797,136.019L249.797,137.129L241.908,137.129L241.908,136.019C241.793,134.831 241.294,134.066 240.451,133.683C239.84,133.415 238.768,133.261 237.235,133.261C235.128,133.261 233.789,133.644 233.214,134.45C232.716,135.1 232.448,136.516 232.448,138.701L232.448,143.181C232.448,145.555 232.678,147.048 233.138,147.738C233.749,148.657 235.091,149.116 237.235,149.116C239.035,149.116 240.223,148.924 240.797,148.58C241.563,148.083 241.945,147.085 241.945,145.516L241.945,144.674L249.834,144.674L249.834,145.516C249.834,147.547 249.72,149 249.49,149.958" style="fill:white;fill-rule:nonzero;"/>
            </g>
            <g transform="matrix(0.8,0,0,-0.8,243.032,1165.93)">
                <path d="M253.551,155.55L253.551,126.828L274.269,126.828L274.269,133.108L261.21,133.108L261.21,138.355L273.465,138.355L273.465,143.677L261.21,143.677L261.21,149.27L274.537,149.27L274.537,155.55L253.551,155.55" style="fill:white;fill-rule:nonzero;"/>
            </g>
        </g>
    </g>
</svg>
