<?xml version="1.0" encoding="utf-8"?><!-- Uploaded to: SVG Repo, www.svgrepo.com, Generator: SVG Repo Mixer Tools -->
<svg width="800px" height="800px" viewBox="0 0 64 64" xmlns="http://www.w3.org/2000/svg" xmlns:xlink="http://www.w3.org/1999/xlink" aria-hidden="true" role="img" class="iconify iconify--emojione" preserveAspectRatio="xMidYMid meet"><path fill="#83bf4f" d="M58.4 0L23.6 38.3l-10.1-7.7H7.9l15.7 25.5L64 0z"></path><path d="M53.9 56.1c0 .6-.5 1.1-1.1 1.1H7.9c-.6 0-1.1-.5-1.1-1.1V11.2c0-.6.5-1.1 1.1-1.1h30.7l6.1-6.7H2.2C1 3.4 0 4.4 0 5.6v56.1C0 63 1 64 2.2 64h56.1c1.2 0 2.2-1 2.2-2.2V18.1l-6.7 9.4c.1 0 .1 28.6.1 28.6" fill="#3e4347"></path></svg>