<?xml version="1.0" encoding="UTF-8" standalone="no"?>
<!DOCTYPE svg PUBLIC "-//W3C//DTD SVG 1.1//EN" "http://www.w3.org/Graphics/SVG/1.1/DTD/svg11.dtd">
<svg width="100%" height="100%" viewBox="0 0 440 171" version="1.1" xmlns="http://www.w3.org/2000/svg" xmlns:xlink="http://www.w3.org/1999/xlink" xml:space="preserve" xmlns:serif="http://www.serif.com/" style="fill-rule:evenodd;clip-rule:evenodd;stroke-linejoin:round;stroke-miterlimit:2;">
    <g id="Logo" transform="matrix(3.80556,0,0,3.80556,-103.375,-77.2122)">
        <g transform="matrix(0.75,0,0,0.593333,19.5,11.6)">
            <path d="M40,15L64,24L64,54.607C64,72.607 52,82 40,90C28,82 16,73.449 16,55.449L16,24L40,15Z" style="fill:url(#_Linear1);fill-rule:nonzero;"/>
        </g>
        <g transform="matrix(0.6875,0,0,0.543889,22,14.1958)">
            <path d="M40,15L64,24L64,54.607C64,72.607 52,82 40,90C28,82 16,73.449 16,55.449L16,24L40,15Z" style="fill:url(#_Linear2);fill-rule:nonzero;"/>
        </g>
        <g transform="matrix(0.6875,0,0,0.543889,22,14.1958)">
            <path d="M40,15L64,24L64,54.607C64,72.607 52,82 40,90L40,15Z" style="fill:url(#_Linear3);"/>
        </g>
        <g transform="matrix(0.625,0,0,0.605263,24,10.5789)">
            <path d="M22.432,52.092L27.911,46.251L30.739,49.079L36.843,55.184L53.78,36.255L59.564,41.773L37.157,66.816L22.432,52.092Z" style="fill:white;"/>
        </g>
        <g transform="matrix(0.625,0,0,0.605263,24,10.5789)">
            <path d="M27.893,45.083L36.812,54.002L53.735,35.087L60.694,41.727L37.188,67.998L21.301,52.111L27.893,45.083ZM23.564,52.073L37.125,65.635L58.433,41.819L53.825,37.422L36.875,56.365L27.929,47.419L23.564,52.073Z" style="fill:rgb(166,106,207);"/>
        </g>
    </g>
    <g transform="matrix(1,0,0,1,-20,0)">
        <path d="M236.121,153.995L220.047,153.995L220.047,88.006L236.121,88.006L236.121,153.995ZM309.811,153.995L292.796,153.995L288.848,142.339L264.22,142.339L260.272,153.995L243.446,153.995L267.322,88.006L285.934,88.006L309.811,153.995ZM268.45,129.931L284.712,129.931L276.534,105.773L268.45,129.931ZM354.584,133.691L372.914,88.006L391.808,88.006L391.808,153.995L375.734,153.995L375.734,114.421L360.976,153.995L348.004,153.995L333.151,114.327L333.151,153.995L317.077,153.995L317.077,88.006L336.066,88.006L354.584,133.691Z" style="fill:white;"/>
    </g>
    <g transform="matrix(1,0,0,1,-20,0)">
        <path d="M380.979,17.677C386.038,17.677 390.527,18.93 394.447,21.437C398.412,23.898 401.283,27.407 403.061,31.965L393.695,31.965C392.464,29.458 390.755,27.59 388.567,26.359C386.38,25.129 383.85,24.513 380.979,24.513C377.834,24.513 375.031,25.22 372.57,26.632C370.109,28.045 368.172,30.074 366.759,32.717C365.392,35.36 364.708,38.437 364.708,41.946C364.708,45.455 365.392,48.532 366.759,51.175C368.172,53.819 370.109,55.87 372.57,57.328C375.031,58.741 377.834,59.447 380.979,59.447C383.85,59.447 386.38,58.832 388.567,57.602C390.755,56.371 392.464,54.502 393.695,51.996L403.061,51.996C401.283,56.553 398.412,60.063 394.447,62.524C390.527,64.985 386.038,66.215 380.979,66.215C376.512,66.215 372.433,65.19 368.742,63.139C365.05,61.043 362.11,58.148 359.923,54.457C357.781,50.765 356.709,46.595 356.709,41.946C356.709,37.297 357.781,33.127 359.923,29.435C362.11,25.744 365.05,22.873 368.742,20.822C372.479,18.725 376.558,17.677 380.979,17.677ZM227.84,65.805L220.047,65.805L220.047,18.292L227.84,18.292L227.84,65.805ZM270.683,53.636L270.683,18.224L278.476,18.224L278.476,65.805L270.683,65.805L247.234,30.324L247.234,65.805L239.44,65.805L239.44,18.224L247.234,18.224L270.683,53.636ZM305.596,18.292C310.655,18.292 315.076,19.272 318.859,21.232C322.687,23.146 325.627,25.926 327.678,29.572C329.775,33.173 330.823,37.389 330.823,42.22C330.823,47.051 329.775,51.244 327.678,54.798C325.627,58.353 322.687,61.088 318.859,63.002C315.076,64.871 310.655,65.805 305.596,65.805L290.078,65.805L290.078,18.292L305.596,18.292ZM297.871,59.447L305.596,59.447C311.156,59.447 315.418,57.943 318.38,54.935C321.343,51.927 322.824,47.689 322.824,42.22C322.824,36.705 321.343,32.398 318.38,29.299C315.418,26.2 311.157,24.65 305.596,24.65L297.871,24.65L297.871,59.447ZM347.708,65.805L339.914,65.805L339.914,18.292L347.708,18.292L347.708,65.805ZM439.802,24.581L421.344,24.581L421.344,38.528L437.751,38.528L437.751,44.886L421.344,44.886L421.344,59.447L439.802,59.447L439.802,65.805L413.55,65.805L413.55,18.224L439.802,18.224L439.802,24.581Z" style="fill:white;"/>
    </g>
    <defs>
        <linearGradient id="_Linear1" x1="0" y1="0" x2="1" y2="0" gradientUnits="userSpaceOnUse" gradientTransform="matrix(4.59243e-15,75,-75,4.59243e-15,16,15)"><stop offset="0" style="stop-color:rgb(90,28,164);stop-opacity:1"/><stop offset="1" style="stop-color:rgb(166,106,207);stop-opacity:1"/></linearGradient>
        <linearGradient id="_Linear2" x1="0" y1="0" x2="1" y2="0" gradientUnits="userSpaceOnUse" gradientTransform="matrix(4.59243e-15,75,-75,4.59243e-15,16,15)"><stop offset="0" style="stop-color:rgb(126,34,206);stop-opacity:1"/><stop offset="1" style="stop-color:rgb(192,132,252);stop-opacity:1"/></linearGradient>
        <linearGradient id="_Linear3" x1="0" y1="0" x2="1" y2="0" gradientUnits="userSpaceOnUse" gradientTransform="matrix(4.59243e-15,75,-75,4.59243e-15,16,15)"><stop offset="0" style="stop-color:rgb(126,34,206);stop-opacity:1"/><stop offset="0.18" style="stop-color:rgb(154,76,226);stop-opacity:1"/><stop offset="0.39" style="stop-color:rgb(181,116,244);stop-opacity:1"/><stop offset="1" style="stop-color:rgb(192,132,252);stop-opacity:1"/></linearGradient>
    </defs>
</svg>
