<?xml version="1.0" encoding="UTF-8" standalone="no"?>
<!DOCTYPE svg PUBLIC "-//W3C//DTD SVG 1.1//EN" "http://www.w3.org/Graphics/SVG/1.1/DTD/svg11.dtd">
<svg width="100%" height="100%" viewBox="0 0 280 280" version="1.1" xmlns="http://www.w3.org/2000/svg" xmlns:xlink="http://www.w3.org/1999/xlink" xml:space="preserve" xmlns:serif="http://www.serif.com/" style="fill-rule:evenodd;clip-rule:evenodd;stroke-linejoin:round;stroke-miterlimit:2;">
    <g id="Group_8205" transform="matrix(1,0,0,1,-6064.09,-1569)">
        <g id="Path_433" transform="matrix(1,0,0,1,6190.23,1569)">
            <path d="M13.859,0C90.661,-0 153.859,63.198 153.859,140C153.859,216.802 90.661,280 13.859,280C-62.943,280 -126.141,216.802 -126.141,140C-126.141,63.198 -62.943,0 13.859,0" style="fill:rgb(220,70,80);fill-rule:nonzero;"/>
        </g>
        <g id="Group_7605" transform="matrix(1,0,0,1,6081.67,1684.91)">
            <g id="Path_9" transform="matrix(1,0,0,1,130.329,0.409)">
                <path d="M0,0L14.488,47.551L29.388,47.551L14.828,0L0,0Z" style="fill:white;fill-rule:nonzero;"/>
            </g>
            <g id="Path_10" transform="matrix(1,0,0,1,0,0.409)">
                <path d="M0,0L14.488,47.551L29.388,47.551L14.828,0L0,0Z" style="fill:white;fill-rule:nonzero;"/>
            </g>
            <g id="Path_11" transform="matrix(1,0,0,1,208.676,43.308)">
                <path d="M0,4.713L35.522,4.713L35.522,-6.155L14.129,-6.155L14.129,-13.694L32.536,-13.694L32.536,-24.561L14.129,-24.561L14.129,-32.033L34.844,-32.033L34.844,-42.9L0,-42.9L0,4.713Z" style="fill:white;fill-rule:nonzero;"/>
            </g>
            <g id="Path_12" transform="matrix(1,0,0,1,159.094,21.725)">
                <path d="M0,2.387C0,16.447 10.664,26.906 25.131,26.906C32.331,26.906 40.142,23.306 45.304,17.737L37.153,9.043C33.893,12.371 29.478,14.543 25.81,14.543C19.358,14.543 14.467,9.243 14.467,2.25C14.467,-4.743 19.358,-9.974 25.81,-9.974C29.75,-9.974 34.165,-7.462 37.153,-3.658L45.3,-13.3C40.112,-18.607 33.021,-21.639 25.6,-21.723C10.868,-21.725 0,-11.469 0,2.387" style="fill:white;fill-rule:nonzero;"/>
            </g>
            <g id="Path_13" transform="matrix(1,0,0,1,85.067,43.308)">
                <path d="M0,4.713L20.375,4.713C36.065,4.713 46.457,-4.796 46.457,-19.127C46.457,-33.458 36.269,-42.9 20.851,-42.9L0,-42.9L0,4.713ZM14.127,-6.358L14.127,-31.758L20.58,-31.758C27.372,-31.758 32.058,-26.664 32.058,-18.989C32.058,-11.382 27.711,-6.355 21.258,-6.355L14.127,-6.358Z" style="fill:white;fill-rule:nonzero;"/>
            </g>
            <g id="Path_15" transform="matrix(1,0,0,1,33.838,43.308)">
                <path d="M0,4.713L12.973,4.713L12.973,-21.775L33.145,4.713L45.168,4.713L45.168,-42.9L32.263,-42.9L32.263,-16.275L12.09,-42.9L0,-42.9L0,4.713Z" style="fill:white;fill-rule:nonzero;"/>
            </g>
        </g>
    </g>
</svg>
