<?xml version="1.0" encoding="UTF-8" standalone="no"?>
<!DOCTYPE svg PUBLIC "-//W3C//DTD SVG 1.1//EN" "http://www.w3.org/Graphics/SVG/1.1/DTD/svg11.dtd">
<svg width="100%" height="100%" viewBox="0 0 121 121" version="1.1" xmlns="http://www.w3.org/2000/svg" xmlns:xlink="http://www.w3.org/1999/xlink" xml:space="preserve" xmlns:serif="http://www.serif.com/" style="fill-rule:evenodd;clip-rule:evenodd;stroke-linejoin:round;stroke-miterlimit:2;">
    <g id="Group_8204" transform="matrix(1,0,0,1,-5268,-908.285)">
        <g id="Path_21" transform="matrix(1,0,0,1,5322.71,908.285)">
            <path d="M5.306,0C38.229,-0 65.321,27.092 65.321,60.015C65.321,92.938 38.229,120.03 5.306,120.03C-27.617,120.03 -54.709,92.938 -54.709,60.015C-54.709,27.092 -27.617,-0 5.306,-0" style="fill:rgb(220,70,80);fill-rule:nonzero;"/>
        </g>
        <g id="Path_23" transform="matrix(1,0,0,1,5315.49,944.096)">
            <path d="M0,0L14.751,48.416L29.918,48.416L15.1,0L0,0Z" style="fill:white;fill-rule:nonzero;"/>
        </g>
        <g id="Path_24" transform="matrix(1,0,0,1,5285.53,944.096)">
            <path d="M0,0L14.751,48.416L29.918,48.416L15.1,0L0,0Z" style="fill:white;fill-rule:nonzero;"/>
        </g>
    </g>
</svg>
