<?xml version="1.0" encoding="UTF-8" standalone="no"?><!DOCTYPE svg PUBLIC "-//W3C//DTD SVG 1.1//EN" "http://www.w3.org/Graphics/SVG/1.1/DTD/svg11.dtd"><svg width="100%" height="100%" viewBox="0 0 171 117" version="1.1" xmlns="http://www.w3.org/2000/svg" xmlns:xlink="http://www.w3.org/1999/xlink" xml:space="preserve" xmlns:serif="http://www.serif.com/" style="fill-rule:evenodd;clip-rule:evenodd;stroke-linejoin:round;stroke-miterlimit:2;"><path id="Background" d="M170.074,106.45c0,5.406 -4.383,9.789 -9.789,9.789l-150.497,0c-5.406,0 -9.788,-4.383 -9.788,-9.789l0,-96.661c0,-5.406 4.382,-9.789 9.788,-9.789l150.497,0c5.406,0 9.789,4.383 9.789,9.789l0,96.661" style="fill:#ee3224;fill-rule:nonzero;"/><g><path id="Innovation" d="M109.891,66.247c0,-0.323 0.039,-0.527 0.112,-0.613c0.092,-0.098 0.31,-0.152 0.653,-0.152c0.348,0 0.567,0.04 0.652,0.126c0.086,0.086 0.132,0.297 0.132,0.639l-1.549,0Zm2.109,-1.002c-0.204,-0.264 -0.653,-0.395 -1.344,-0.395c-0.666,0 -1.101,0.138 -1.319,0.422c-0.184,0.237 -0.277,0.692 -0.277,1.358c0,0.672 0.099,1.127 0.29,1.357c0.217,0.27 0.653,0.402 1.306,0.402c0.579,0 0.975,-0.052 1.179,-0.164c0.291,-0.152 0.435,-0.481 0.435,-0.976l-0.83,0c0,0.231 -0.073,0.383 -0.217,0.448c-0.087,0.04 -0.278,0.06 -0.567,0.06c-0.35,0 -0.567,-0.073 -0.66,-0.211c-0.072,-0.112 -0.105,-0.369 -0.105,-0.771l2.379,0c0,-0.785 -0.092,-1.299 -0.27,-1.53Zm4.248,-0.567c0,-0.25 0.027,-0.408 0.072,-0.481c0.073,-0.105 0.238,-0.158 0.495,-0.158l0.251,0l0,-0.633l-0.541,0c-0.435,0 -0.732,0.086 -0.883,0.264c-0.145,0.171 -0.225,0.474 -0.225,0.916l0,0.303l-0.487,0l0,0.633l0.487,0l0,2.828l0.831,0l0,-2.828l0.844,0l0,-0.633l-0.844,0l0,-0.211Zm-14.332,2.769c-0.099,0.204 -0.343,0.31 -0.725,0.31c-0.336,0 -0.547,-0.106 -0.646,-0.323c-0.059,-0.139 -0.092,-0.449 -0.092,-0.917c0,-0.375 0.033,-0.626 0.099,-0.751c0.099,-0.191 0.309,-0.284 0.639,-0.284c0.349,0 0.587,0.087 0.699,0.264c0.085,0.138 0.132,0.396 0.132,0.771c0,0.482 -0.033,0.792 -0.106,0.93Zm0.139,-2.037l-0.027,0c-0.171,-0.375 -0.534,-0.56 -1.081,-0.56c-0.58,0 -0.962,0.178 -1.147,0.54c-0.118,0.231 -0.178,0.68 -0.178,1.332c0,0.573 0.072,0.982 0.218,1.213c0.191,0.303 0.56,0.454 1.107,0.454c0.547,0 0.91,-0.177 1.081,-0.534l0.02,0l0,0.66c0,0.309 -0.066,0.514 -0.198,0.613c-0.112,0.086 -0.329,0.125 -0.659,0.125c-0.244,0 -0.402,-0.033 -0.488,-0.092c-0.106,-0.073 -0.158,-0.224 -0.158,-0.455l-0.778,0c-0.026,0.475 0.099,0.798 0.376,0.976c0.211,0.138 0.56,0.204 1.048,0.204c0.633,0 1.062,-0.099 1.285,-0.297c0.251,-0.217 0.376,-0.633 0.376,-1.245l0,-3.455l-0.83,0l0.033,0.522Zm11.898,-0.733c0,-0.25 0.026,-0.408 0.072,-0.481c0.072,-0.105 0.237,-0.158 0.495,-0.158l0.25,0l0,-0.633l-0.541,0c-0.435,0 -0.731,0.086 -0.882,0.264c-0.146,0.171 -0.225,0.474 -0.225,0.916l0,0.303l-0.488,0l0,0.633l0.488,0l0,2.829l0.831,0l0,-2.829l0.843,0l0,-0.633l-0.843,0l0,-0.21Zm-25.536,0.171c-0.284,0 -0.501,0.032 -0.653,0.092c-0.205,0.086 -0.349,0.237 -0.435,0.468l-0.027,0l0,-0.521l-0.83,0l0,3.461l0.83,0l0,-1.905c0,-0.349 0.047,-0.587 0.146,-0.719c0.118,-0.164 0.342,-0.244 0.678,-0.244c0.258,0 0.429,0.047 0.515,0.146c0.085,0.092 0.131,0.27 0.131,0.527l0,2.195l0.831,0l0,-2.28c0,-0.442 -0.085,-0.752 -0.264,-0.943c-0.178,-0.185 -0.481,-0.277 -0.922,-0.277Zm5.844,3.5l0.831,0l0,-4.944l-0.831,0l0,4.944Zm3.843,-0.811c-0.092,0.145 -0.316,0.218 -0.678,0.218c-0.357,0 -0.58,-0.073 -0.672,-0.218c-0.087,-0.125 -0.126,-0.428 -0.126,-0.909c0,-0.481 0.039,-0.791 0.126,-0.923c0.098,-0.152 0.322,-0.225 0.672,-0.225c0.356,0 0.579,0.073 0.678,0.225c0.08,0.125 0.119,0.428 0.119,0.923c0,0.481 -0.039,0.784 -0.119,0.909Zm-0.678,-2.689c-0.693,0 -1.147,0.125 -1.359,0.382c-0.177,0.217 -0.27,0.685 -0.27,1.391c0,0.705 0.093,1.166 0.27,1.385c0.212,0.256 0.666,0.381 1.359,0.381c0.692,0 1.146,-0.125 1.358,-0.381c0.178,-0.219 0.27,-0.68 0.27,-1.385c0,-0.706 -0.092,-1.174 -0.27,-1.391c-0.212,-0.257 -0.666,-0.382 -1.358,-0.382Zm-4.822,2.689c-0.092,0.145 -0.316,0.218 -0.679,0.218c-0.355,0 -0.58,-0.073 -0.672,-0.218c-0.085,-0.125 -0.125,-0.428 -0.125,-0.909c0,-0.481 0.04,-0.791 0.125,-0.923c0.099,-0.152 0.323,-0.225 0.672,-0.225c0.356,0 0.58,0.073 0.679,0.225c0.079,0.125 0.118,0.428 0.118,0.923c0,0.481 -0.039,0.784 -0.118,0.909Zm-0.679,-2.689c-0.691,0 -1.147,0.125 -1.357,0.382c-0.178,0.217 -0.27,0.685 -0.27,1.391c0,0.705 0.092,1.166 0.27,1.385c0.21,0.256 0.666,0.381 1.357,0.381c0.692,0 1.147,-0.125 1.358,-0.381c0.178,-0.219 0.27,-0.68 0.27,-1.385c0,-0.706 -0.092,-1.174 -0.27,-1.391c-0.211,-0.257 -0.666,-0.382 -1.358,-0.382Zm38.067,0c-0.283,0 -0.501,0.032 -0.652,0.092c-0.205,0.086 -0.35,0.237 -0.435,0.468l-0.027,0l0,-0.521l-0.831,0l0,3.461l0.831,0l0,-1.905c0,-0.349 0.046,-0.587 0.145,-0.719c0.119,-0.164 0.343,-0.244 0.679,-0.244c0.257,0 0.428,0.047 0.514,0.146c0.086,0.092 0.132,0.27 0.132,0.527l0,2.195l0.831,0l0,-2.28c0,-0.442 -0.086,-0.752 -0.264,-0.943c-0.178,-0.185 -0.481,-0.277 -0.923,-0.277Zm-45.52,0c-0.282,0 -0.5,0.032 -0.652,0.092c-0.204,0.086 -0.349,0.237 -0.435,0.468l-0.026,0l0,-2.004l-0.831,0l0,4.944l0.831,0l0,-1.905c0,-0.349 0.046,-0.587 0.144,-0.719c0.12,-0.164 0.344,-0.244 0.68,-0.244c0.257,0 0.428,0.047 0.514,0.146c0.086,0.092 0.132,0.27 0.132,0.527l0,2.195l0.831,0l0,-2.28c0,-0.442 -0.087,-0.752 -0.264,-0.943c-0.178,-0.185 -0.482,-0.277 -0.924,-0.277Zm33.023,3.5l0.83,0l0,-3.461l-0.83,0l0,3.461Zm15.94,-2.868c0.283,0 0.474,0.033 0.567,0.099c0.118,0.08 0.177,0.251 0.177,0.521l0.831,0c0,-0.514 -0.132,-0.857 -0.402,-1.034c-0.218,-0.146 -0.613,-0.218 -1.173,-0.218c-0.64,0 -1.068,0.145 -1.286,0.428c-0.178,0.231 -0.264,0.679 -0.264,1.345c0,0.672 0.092,1.127 0.271,1.358c0.211,0.27 0.632,0.408 1.279,0.408c0.586,0 0.981,-0.078 1.193,-0.237c0.256,-0.191 0.382,-0.56 0.382,-1.12l-0.831,0c0,0.31 -0.046,0.514 -0.138,0.6c-0.086,0.085 -0.29,0.125 -0.606,0.125c-0.343,0 -0.555,-0.079 -0.633,-0.244c-0.06,-0.112 -0.086,-0.409 -0.086,-0.89c0,-0.481 0.033,-0.784 0.092,-0.903c0.086,-0.158 0.29,-0.238 0.627,-0.238Zm-8.448,0.765c0,-0.323 0.039,-0.527 0.111,-0.613c0.093,-0.098 0.311,-0.152 0.654,-0.152c0.348,0 0.566,0.04 0.652,0.126c0.086,0.086 0.131,0.297 0.131,0.639l-1.548,0Zm2.109,-1.002c-0.204,-0.264 -0.653,-0.395 -1.344,-0.395c-0.666,0 -1.101,0.138 -1.319,0.422c-0.184,0.237 -0.277,0.692 -0.277,1.358c0,0.672 0.099,1.127 0.29,1.357c0.217,0.27 0.652,0.402 1.306,0.402c0.579,0 0.975,-0.052 1.179,-0.164c0.291,-0.152 0.435,-0.481 0.435,-0.976l-0.831,0c0,0.231 -0.072,0.383 -0.217,0.448c-0.086,0.04 -0.277,0.06 -0.566,0.06c-0.35,0 -0.567,-0.073 -0.66,-0.211c-0.072,-0.112 -0.105,-0.369 -0.105,-0.771l2.379,0c0,-0.785 -0.092,-1.299 -0.27,-1.53Zm10.506,-0.356l-0.672,2.947l-0.013,0l-0.877,-2.947l-0.856,0l1.14,3.461l0.402,0c-0.053,0.297 -0.105,0.495 -0.165,0.6c-0.112,0.204 -0.276,0.303 -0.507,0.303l-0.178,-0.02l0,0.626c0.039,0 0.098,0.007 0.178,0.014c0.078,0.007 0.138,0.013 0.177,0.013c0.435,0 0.752,-0.132 0.95,-0.402c0.125,-0.165 0.244,-0.501 0.369,-0.996l0.896,-3.599l-0.844,0Zm-20.107,-0.778l0.83,0l0,-0.704l-0.83,0l0,0.704Zm3.046,1.371c0.284,0 0.475,0.033 0.567,0.099c0.119,0.08 0.178,0.251 0.178,0.521l0.831,0c0,-0.514 -0.132,-0.857 -0.402,-1.034c-0.217,-0.146 -0.613,-0.218 -1.174,-0.218c-0.639,0 -1.068,0.145 -1.285,0.428c-0.178,0.231 -0.263,0.679 -0.263,1.345c0,0.672 0.092,1.127 0.27,1.358c0.21,0.27 0.633,0.409 1.278,0.409c0.588,-0.001 0.983,-0.079 1.194,-0.238c0.257,-0.191 0.382,-0.56 0.382,-1.12l-0.831,0c0,0.31 -0.046,0.514 -0.138,0.6c-0.085,0.085 -0.29,0.125 -0.607,0.125c-0.342,0 -0.553,-0.079 -0.632,-0.244c-0.06,-0.112 -0.086,-0.409 -0.086,-0.89c0,-0.481 0.033,-0.784 0.092,-0.903c0.086,-0.158 0.29,-0.237 0.626,-0.237Zm2.145,-1.371l0.83,-0.001l0,-0.704l-0.83,0l0,0.705Zm0,4.239l0.83,-0.001l0,-3.461l-0.83,0l0,3.462Zm-17.709,-0.515l-0.013,0l-0.877,-2.947l-0.857,0l1.141,3.462l0.402,-0.001c-0.053,0.297 -0.106,0.495 -0.165,0.6c-0.112,0.205 -0.277,0.303 -0.508,0.303l-0.178,-0.02l0,0.627c0.04,0 0.099,0.006 0.178,0.013c0.079,0.007 0.139,0.013 0.178,0.013c0.435,0 0.752,-0.132 0.949,-0.402c0.125,-0.165 0.245,-0.501 0.37,-0.996l0.896,-3.599l-0.844,0l-0.672,2.947Zm-55.881,-0.297c-0.092,0.145 -0.316,0.218 -0.678,0.218c-0.357,0 -0.581,-0.073 -0.673,-0.218c-0.086,-0.125 -0.125,-0.428 -0.125,-0.909c0,-0.481 0.039,-0.791 0.125,-0.923c0.099,-0.152 0.323,-0.225 0.673,-0.225c0.355,0 0.579,0.073 0.678,0.225c0.079,0.125 0.119,0.428 0.119,0.923c0,0.481 -0.04,0.784 -0.119,0.909Zm-0.678,-2.689c-0.693,0 -1.148,0.125 -1.359,0.382c-0.177,0.217 -0.27,0.685 -0.27,1.391c0,0.705 0.093,1.166 0.27,1.385c0.211,0.256 0.666,0.381 1.359,0.381c0.692,0 1.146,-0.125 1.357,-0.381c0.179,-0.219 0.271,-0.68 0.271,-1.385c0,-0.706 -0.092,-1.174 -0.271,-1.391c-0.211,-0.257 -0.665,-0.382 -1.357,-0.382Zm12.208,3.5l0.83,0l0,-3.461l-0.83,0l0,3.461Zm-15.717,-3.5c-0.283,0 -0.501,0.032 -0.653,0.092c-0.204,0.086 -0.349,0.237 -0.435,0.468l-0.026,0l0,-0.521l-0.831,0l0,3.461l0.831,0l0,-1.905c0,-0.349 0.046,-0.587 0.145,-0.719c0.119,-0.164 0.343,-0.244 0.679,-0.244c0.257,0 0.428,0.047 0.514,0.146c0.086,0.092 0.132,0.27 0.132,0.527l0,2.195l0.831,0l0,-2.28c0,-0.442 -0.087,-0.752 -0.264,-0.943c-0.178,-0.185 -0.482,-0.277 -0.923,-0.277Zm14.542,2.676c-0.046,0.152 -0.178,0.231 -0.383,0.231c-0.164,0 -0.263,-0.04 -0.309,-0.112c-0.033,-0.053 -0.046,-0.171 -0.046,-0.35l0,-1.773l1.324,0l0,-0.633l-1.324,0l0,-0.784l-0.831,0l0,0.784l-0.435,0l0,0.633l0.435,0l0,1.78c0,0.435 0.092,0.732 0.271,0.883c0.164,0.138 0.468,0.204 0.915,0.204c0.468,0 0.785,-0.111 0.95,-0.336c0.139,-0.191 0.205,-0.534 0.198,-1.028l-0.732,0c0,0.263 -0.013,0.428 -0.033,0.501Zm-18.486,-2.676c-0.284,0 -0.501,0.032 -0.653,0.092c-0.204,0.086 -0.349,0.237 -0.435,0.468l-0.027,0l0,-0.521l-0.83,0l0,3.461l0.83,0l0,-1.905c0,-0.349 0.047,-0.587 0.146,-0.719c0.118,-0.164 0.343,-0.244 0.679,-0.244c0.257,0 0.428,0.047 0.514,0.146c0.086,0.092 0.131,0.27 0.131,0.527l0,2.195l0.831,0l0,-2.28c0,-0.442 -0.085,-0.752 -0.264,-0.943c-0.177,-0.185 -0.48,-0.277 -0.922,-0.277Zm11.02,2.933l-0.019,0l-0.811,-2.894l-0.85,0l1.047,3.461l1.253,0l1.009,-3.461l-0.87,0l-0.759,2.894Zm4.01,-0.039c-0.099,0.052 -0.277,0.078 -0.547,0.078c-0.297,0 -0.488,-0.026 -0.586,-0.085c-0.113,-0.066 -0.172,-0.218 -0.172,-0.449c0,-0.217 0.073,-0.362 0.224,-0.435c0.086,-0.039 0.263,-0.059 0.534,-0.059c0.257,0 0.435,0.02 0.534,0.066c0.152,0.073 0.23,0.211 0.23,0.428c0,0.225 -0.072,0.376 -0.217,0.456Zm-0.521,-2.894c-0.494,0 -0.843,0.046 -1.035,0.145c-0.296,0.151 -0.448,0.448 -0.448,0.903l0.831,0c0,-0.204 0.066,-0.336 0.191,-0.409c0.086,-0.046 0.244,-0.073 0.461,-0.073c0.324,0 0.534,0.06 0.627,0.172c0.072,0.092 0.111,0.29 0.111,0.587l0,0.448l-0.026,0c-0.085,-0.172 -0.23,-0.283 -0.435,-0.343c-0.125,-0.033 -0.323,-0.053 -0.6,-0.053c-0.435,0 -0.751,0.066 -0.943,0.198c-0.23,0.158 -0.348,0.449 -0.348,0.863c0,0.429 0.111,0.726 0.336,0.891c0.191,0.138 0.513,0.21 0.955,0.21c0.277,0 0.488,-0.019 0.626,-0.066c0.225,-0.072 0.376,-0.204 0.449,-0.408l0.019,0l-0.033,0.435l0.831,0l0,-2.169c0,-0.553 -0.125,-0.923 -0.369,-1.101c-0.204,-0.151 -0.606,-0.23 -1.2,-0.23Zm5.152,-0.739l0.83,0l0,-0.704l-0.83,0l0,0.704Zm19.712,1.371c0.283,0 0.474,0.033 0.567,0.099c0.118,0.08 0.177,0.251 0.177,0.521l0.831,0c0,-0.514 -0.132,-0.857 -0.402,-1.034c-0.217,-0.146 -0.613,-0.218 -1.173,-0.218c-0.639,0 -1.068,0.145 -1.286,0.428c-0.178,0.231 -0.263,0.679 -0.263,1.345c0,0.672 0.092,1.127 0.27,1.358c0.211,0.27 0.633,0.409 1.279,0.409c0.587,-0.001 0.982,-0.079 1.193,-0.238c0.257,-0.191 0.382,-0.56 0.382,-1.12l-0.831,0c0,0.31 -0.045,0.514 -0.138,0.6c-0.085,0.085 -0.29,0.125 -0.606,0.125c-0.343,0 -0.554,-0.079 -0.633,-0.244c-0.06,-0.112 -0.086,-0.409 -0.086,-0.89c0,-0.481 0.033,-0.784 0.092,-0.903c0.087,-0.158 0.291,-0.237 0.627,-0.237Zm-4.504,0.764c0,-0.323 0.04,-0.527 0.112,-0.613c0.092,-0.098 0.309,-0.151 0.652,-0.151c0.35,-0.001 0.567,0.039 0.653,0.125c0.086,0.086 0.132,0.297 0.132,0.639l-1.549,0.001Zm2.109,-1.002c-0.204,-0.264 -0.653,-0.396 -1.345,-0.396c-0.665,0 -1.1,0.138 -1.318,0.422c-0.184,0.237 -0.276,0.692 -0.276,1.358c0,0.672 0.098,1.127 0.289,1.358c0.218,0.269 0.653,0.401 1.305,0.401c0.581,0.001 0.976,-0.052 1.181,-0.164c0.289,-0.152 0.435,-0.481 0.435,-0.975l-0.831,-0.001c0,0.231 -0.072,0.383 -0.218,0.448c-0.085,0.04 -0.277,0.06 -0.567,0.06c-0.349,0 -0.566,-0.072 -0.658,-0.211c-0.073,-0.112 -0.106,-0.369 -0.106,-0.771l2.38,0c0,-0.785 -0.093,-1.299 -0.271,-1.529Zm-40.526,-1.135l0.831,0.001l0,-0.705l-0.831,0l0,0.704Zm36.497,3.415c-0.046,0.152 -0.178,0.231 -0.382,0.231c-0.165,0 -0.264,-0.04 -0.31,-0.112c-0.033,-0.053 -0.046,-0.171 -0.046,-0.35l0,-1.773l1.325,0l0,-0.633l-1.325,0l0,-0.784l-0.83,0l0,0.784l-0.436,0l0,0.633l0.436,0l0,1.78c0,0.435 0.092,0.732 0.27,0.883c0.165,0.138 0.468,0.204 0.916,0.204c0.468,0.001 0.784,-0.111 0.949,-0.335c0.139,-0.192 0.205,-0.535 0.198,-1.029l-0.732,0c0,0.263 -0.013,0.428 -0.033,0.501Zm-36.497,0.824l0.831,0l0,-3.461l-0.831,0l0,3.461Zm30.594,-3.5c-0.283,0 -0.501,0.032 -0.652,0.092c-0.205,0.086 -0.35,0.237 -0.435,0.468l-0.027,0l0,-0.521l-0.83,0l0,3.461l0.83,0l0,-1.905c0,-0.349 0.046,-0.587 0.145,-0.719c0.119,-0.164 0.343,-0.244 0.679,-0.244c0.257,0 0.428,0.047 0.515,0.146c0.085,0.092 0.131,0.27 0.131,0.527l0,2.195l0.831,0l0,-2.28c0,-0.442 -0.086,-0.752 -0.264,-0.943c-0.178,-0.185 -0.481,-0.277 -0.923,-0.277Zm-3.594,2.689c-0.093,0.145 -0.317,0.218 -0.679,0.218c-0.356,0 -0.58,-0.073 -0.672,-0.218c-0.086,-0.125 -0.125,-0.428 -0.125,-0.909c0,-0.481 0.039,-0.791 0.125,-0.923c0.098,-0.152 0.322,-0.225 0.672,-0.225c0.356,0 0.58,0.073 0.679,0.225c0.079,0.125 0.118,0.428 0.118,0.923c0,0.481 -0.039,0.784 -0.118,0.909Zm-0.679,-2.689c-0.692,0 -1.147,0.125 -1.358,0.382c-0.178,0.217 -0.27,0.685 -0.27,1.391c0,0.705 0.092,1.166 0.27,1.385c0.211,0.256 0.666,0.381 1.358,0.381c0.692,0 1.147,-0.125 1.358,-0.381c0.178,-0.219 0.27,-0.68 0.27,-1.385c0,-0.706 -0.092,-1.174 -0.27,-1.391c-0.211,-0.257 -0.666,-0.382 -1.358,-0.382" style="fill:#fff;fill-rule:nonzero;"/><g id="Indice"><path d="M37.398,60.607l-5.772,-21.541l5.745,0l5.772,21.541l-5.745,0" style="fill:#fff;fill-rule:nonzero;"/><path d="M56.536,60.607l-6.09,-16.543l-0.229,0l0.344,16.543l-5.744,0l0,-21.541l9.709,0l6.174,16.543l0.23,0l-0.344,-16.543l5.744,0l0,21.541l-9.794,0" style="fill:#fff;fill-rule:nonzero;"/><path d="M83.248,47.424c0,-1.35 -0.23,-2.239 -0.69,-2.728c-0.429,-0.432 -1.148,-0.632 -2.211,-0.632l-5.027,0l0,11.546l5.027,0c1.924,0 2.901,-1.234 2.901,-3.677l0,-4.509Zm4.222,11.057c-1.207,1.409 -3.275,2.127 -6.204,2.127l-11.69,0l0,-21.542l10.914,0c3.045,0 5.257,0.632 6.607,1.895c1.377,1.293 2.068,3.447 2.068,6.463l0,4.509c0,3.044 -0.575,5.229 -1.695,6.548" style="fill:#fff;fill-rule:nonzero;"/><path d="M95.006,60.607l-5.769,-21.541l5.741,0l5.773,21.541l-5.745,0" style="fill:#fff;fill-rule:nonzero;"/><path d="M119.582,56.414c-0.259,1.12 -0.833,2.067 -1.694,2.758c-0.89,0.718 -1.953,1.206 -3.247,1.435c-0.718,0.115 -1.924,0.173 -3.618,0.173c-3.562,0 -5.975,-0.373 -7.267,-1.12c-1.924,-1.12 -2.873,-3.475 -2.873,-7.037l0,-5.573c0,-3.302 0.891,-5.571 2.701,-6.749c1.407,-0.949 3.907,-1.408 7.439,-1.408c3.302,0 5.486,0.374 6.605,1.12c1.437,0.948 2.184,2.931 2.184,5.946l0,0.833l-5.916,0l0,-0.833c-0.087,-0.891 -0.461,-1.465 -1.093,-1.752c-0.458,-0.201 -1.263,-0.316 -2.412,-0.316c-1.58,0 -2.585,0.287 -3.016,0.892c-0.373,0.487 -0.574,1.549 -0.574,3.188l0,3.36c0,1.78 0.171,2.9 0.516,3.418c0.459,0.689 1.466,1.033 3.074,1.033c1.35,0 2.24,-0.144 2.671,-0.402c0.575,-0.373 0.861,-1.121 0.861,-2.298l0,-0.631l5.917,0l0,0.631c0,1.523 -0.086,2.613 -0.258,3.332" style="fill:#fff;fill-rule:nonzero;"/><path d="M122.628,60.607l0,-21.541l15.538,0l0,4.71l-9.794,0l0,3.935l9.191,0l0,3.992l-9.191,0l0,4.194l9.995,0l0,4.71l-15.739,0" style="fill:#fff;fill-rule:nonzero;"/></g></g></svg>