<?xml version="1.0" encoding="iso-8859-1"?>
<!-- Generator: Adobe Illustrator 19.0.0, SVG Export Plug-In . SVG Version: 6.00 Build 0)  -->
<svg version="1.1" id="Capa_1" xmlns="http://www.w3.org/2000/svg" xmlns:xlink="http://www.w3.org/1999/xlink" x="0px" y="0px"
	 viewBox="0 0 464 464" style="enable-background:new 0 0 464 464;" xml:space="preserve">
<g>
	<g>
		<path d="M392,79.68c-24.216,0-45.688,12.024-58.744,30.416C321.496,56.184,273.392,15.68,216,15.68
			c-63.832,0-116.184,50.104-119.808,113.048C86.016,118.216,71.76,111.68,56,111.68c-30.872,0-56,25.128-56,56v32
			c0,30.872,25.128,56,56,56h168v48.168c-16,3.208-28.624,15.832-31.832,31.832H136c-4.424,0-8,3.576-8,8v24.168
			c-18.584,3.728-32.64,20.168-32.64,39.832c0,22.408,18.232,40.64,40.64,40.64s40.64-18.232,40.64-40.64
			c0-19.664-14.056-36.104-32.64-39.832V351.68h48.168c3.728,18.584,20.168,32.64,39.832,32.64s36.104-14.056,39.832-32.64H320
			v16.168c-18.584,3.728-32.64,20.168-32.64,39.832c0,22.408,18.232,40.64,40.64,40.64s40.64-18.232,40.64-40.64
			c0-19.664-14.056-36.104-32.64-39.832V343.68c0-4.424-3.576-8-8-8h-56.168c-3.208-16-15.832-28.624-31.832-31.832V255.68h152
			c39.704,0,72-32.296,72-72v-32C464,111.976,431.704,79.68,392,79.68z M159.36,407.68c0,12.88-10.48,23.36-23.36,23.36
			s-23.36-10.48-23.36-23.36c0-12.88,10.48-23.36,23.36-23.36S159.36,394.8,159.36,407.68z M351.36,407.68
			c0,12.88-10.48,23.36-23.36,23.36c-12.88,0-23.36-10.48-23.36-23.36c0-12.88,10.48-23.36,23.36-23.36
			C340.88,384.32,351.36,394.8,351.36,407.68z M255.36,343.68c0,12.88-10.48,23.36-23.36,23.36s-23.36-10.48-23.36-23.36
			c0-12.88,10.48-23.36,23.36-23.36S255.36,330.8,255.36,343.68z M448,183.68c0,30.872-25.128,56-56,56H240v-88c0-4.424-3.576-8-8-8
			s-8,3.576-8,8v88H56c-22.056,0-40-17.944-40-40v-32c0-22.056,17.944-40,40-40c22.056,0,40,17.944,40,40c0,4.424,3.576,8,8,8
			s8-3.576,8-8v-32c0-57.344,46.656-104,104-104s104,46.656,104,104v16c0,4.424,3.576,8,8,8s8-3.576,8-8c0-30.872,25.128-56,56-56
			s56,25.128,56,56V183.68z"/>
	</g>
</g>
<g>
	<g>
		<path d="M200,47.68c-56.064,0-71.608,47.016-72,71.872c-0.072,4.416,3.464,8.056,7.872,8.128c0.04,0,0.088,0,0.128,0
			c4.36,0,7.928-3.504,8-7.872c0.032-2.296,1.496-56.128,56-56.128c4.424,0,8-3.576,8-8S204.424,47.68,200,47.68z"/>
	</g>
</g>
<g>
	<g>
		<path d="M392,111.68c-4.4,0-7.952,3.552-7.976,7.952c-0.024,4.4,3.528,8,7.928,8.048c4.016,0.048,24.048,1.416,24.048,24
			c0,4.424,3.576,8,8,8s8-3.576,8-8C432,120.04,405.832,111.68,392,111.68z"/>
	</g>
</g>
<g>
	<g>
		<path d="M360,207.68h-64c-4.424,0-8,3.576-8,8s3.576,8,8,8h64c4.424,0,8-3.576,8-8S364.424,207.68,360,207.68z"/>
	</g>
</g>
<g>
</g>
<g>
</g>
<g>
</g>
<g>
</g>
<g>
</g>
<g>
</g>
<g>
</g>
<g>
</g>
<g>
</g>
<g>
</g>
<g>
</g>
<g>
</g>
<g>
</g>
<g>
</g>
<g>
</g>
</svg>
