<svg id="Layer_1" enable-background="new 0 0 478.445 478.445" height="512" viewBox="0 0 478.445 478.445" width="512" xmlns="http://www.w3.org/2000/svg"><path d="m463.151 329.813-33.51 58.042c-1.994 3.452-6.227 4.91-9.923 3.418l-49.328-19.913c-4.097-1.653-6.078-6.315-4.424-10.412 1.654-4.099 6.315-6.08 10.413-4.424l42.881 17.31 26.558-46.001-36.386-28.444c-2.612-2.042-3.693-5.482-2.72-8.651 10.078-32.808 10.463-68.968 0-103.029-.973-3.169.108-6.609 2.72-8.651l36.386-28.444-26.558-46.001-42.881 17.31c-3.075 1.243-6.595.458-8.853-1.97-24.083-25.895-54.915-43.712-89.161-51.526-3.235-.738-5.679-3.397-6.142-6.684l-6.442-45.743h-53.117l-6.442 45.741c-.463 3.286-2.907 5.945-6.142 6.684-34.247 7.814-65.078 25.632-89.161 51.526-2.258 2.428-5.778 3.213-8.853 1.97l-42.881-17.31-26.559 46.001 36.386 28.444c2.612 2.042 3.693 5.482 2.72 8.651-10.078 32.808-10.463 68.968 0 103.029.973 3.169-.108 6.609-2.72 8.651l-36.386 28.444 26.559 46.001 42.881-17.31c3.075-1.243 6.596-.458 8.853 1.97 24.083 25.895 54.915 43.712 89.161 51.526 3.235.738 5.679 3.397 6.142 6.684l6.442 45.741h53.117l6.442-45.741c.463-3.286 2.907-5.945 6.142-6.684 18.752-4.278 36.577-11.602 52.977-21.764 3.759-2.325 8.688-1.167 11.014 2.587 2.327 3.756 1.169 8.688-2.586 11.015-16.328 10.117-33.952 17.656-52.459 22.45l-6.655 47.253c-.556 3.947-3.935 6.884-7.922 6.884h-67.021c-3.987 0-7.366-2.937-7.922-6.884l-6.655-47.253c-33.458-8.658-63.725-26.149-88.106-50.919l-44.301 17.883c-3.697 1.494-7.929.035-9.923-3.418l-33.511-58.042c-1.994-3.453-1.14-7.847 2.001-10.303l37.595-29.39c-9.146-33.188-9.148-68.599 0-101.795l-37.595-29.39c-3.141-2.456-3.995-6.85-2.001-10.303l33.511-58.042c1.994-3.453 6.225-4.911 9.923-3.418l44.301 17.883c24.381-24.77 54.648-42.261 88.106-50.919l6.655-47.253c.555-3.943 3.934-6.88 7.921-6.88h67.021c3.987 0 7.366 2.937 7.922 6.884l6.655 47.253c33.458 8.658 63.725 26.149 88.106 50.919l44.302-17.883c3.697-1.491 7.93-.036 9.923 3.418l33.51 58.042c1.994 3.453 1.14 7.847-2.001 10.303l-37.595 29.39c9.146 33.188 9.148 68.599 0 101.795l37.595 29.39c3.141 2.455 3.995 6.848 2.001 10.302zm-237.033-52.534 40-68c2.24-3.809.969-8.712-2.839-10.952-3.807-2.239-8.711-.969-10.952 2.839l-40 68c-2.24 3.809-.969 8.712 2.839 10.952 3.81 2.24 8.713.968 10.952-2.839zm-31.239-68.725c-3.123-3.122-8.188-3.123-11.313 0l-25.012 25.012c-3.122 3.123-3.124 8.189 0 11.314l25.012 25.012c3.125 3.124 8.189 3.123 11.313 0 3.125-3.125 3.125-8.19 0-11.314l-19.355-19.354 19.355-19.354c3.125-3.126 3.125-8.191 0-11.316zm93.344 63.681c2.047 0 4.095-.781 5.657-2.343l25.012-25.013c3.122-3.123 3.124-8.189 0-11.314l-25.012-25.012c-3.124-3.123-8.189-3.123-11.313 0-3.125 3.125-3.125 8.19 0 11.314l19.355 19.354-19.355 19.355c-5.057 5.059-1.407 13.659 5.656 13.659zm-95.818 94.675c15.27 5.599 31.102 8.386 46.895 8.385 98.825-.005 165.058-103.194 123.314-193.261-31.533-68.036-112.54-97.736-180.58-66.204-86.499 40.09-106.111 155.354-36.93 221.612 3.191 3.057 8.256 2.947 11.311-.244 3.056-3.19 2.947-8.255-.244-11.311-61.001-58.426-43.772-160.149 32.59-195.54 60.037-27.823 131.512-1.619 159.335 58.415 27.824 60.033 1.619 131.511-58.415 159.335-29.083 13.479-61.674 14.825-91.771 3.791-4.147-1.519-8.744.61-10.265 4.757-1.519 4.149.611 8.745 4.76 10.265z"/></svg>