<?xml version="1.0" encoding="iso-8859-1"?>
<!-- Generator: Adobe Illustrator 19.0.0, SVG Export Plug-In . SVG Version: 6.00 Build 0)  -->
<svg version="1.1" id="Capa_1" xmlns="http://www.w3.org/2000/svg" xmlns:xlink="http://www.w3.org/1999/xlink" x="0px" y="0px"
	 viewBox="0 0 464 464" style="enable-background:new 0 0 464 464;" xml:space="preserve">
<g>
	<g>
		<path d="M392,128h-88.808c-3.72-18.232-19.872-32-39.192-32c-19.32,0-35.472,13.768-39.192,32H72c-4.424,0-8,3.576-8,8v64
			c0,1.04,0.208,2.08,0.616,3.056c0.408,0.984,0.992,1.872,1.736,2.608L192,331.312V456c0,3.232,1.944,6.16,4.936,7.392
			c0.992,0.416,2.032,0.608,3.064,0.608c2.08,0,4.128-0.816,5.656-2.344l64-64C271.16,396.16,272,394.128,272,392v-60.688
			l125.648-125.648c0.744-0.736,1.328-1.624,1.736-2.608C399.792,202.08,400,201.04,400,200v-64C400,131.576,396.424,128,392,128z
			 M264,112c10.432,0,19.328,6.688,22.632,16h-45.264C244.672,118.688,253.568,112,264,112z M258.344,322.344
			C256.84,323.84,256,325.872,256,328v60.688l-48,48V328c0-2.128-0.84-4.16-2.344-5.656L91.312,208h281.376L258.344,322.344z
			 M384,160h-24c-4.424,0-8,3.576-8,8s3.576,8,8,8h24v16H80v-16h24c4.424,0,8-3.576,8-8s-3.576-8-8-8H80v-16h152h64h88V160z"/>
	</g>
</g>
<g>
	<g>
		<path d="M205.656,290.344l-64-64c-3.128-3.128-8.184-3.128-11.312,0s-3.128,8.184,0,11.312l64,64
			c1.56,1.56,3.608,2.344,5.656,2.344c2.048,0,4.096-0.784,5.656-2.344C208.784,298.528,208.784,293.472,205.656,290.344z"/>
	</g>
</g>
<g>
	<g>
		<path d="M136,0c-22.056,0-40,17.944-40,40c0,22.056,17.944,40,40,40c22.056,0,40-17.944,40-40C176,17.944,158.056,0,136,0z
			 M136,64c-13.232,0-24-10.768-24-24s10.768-24,24-24s24,10.768,24,24S149.232,64,136,64z"/>
	</g>
</g>
<g>
	<g>
		<path d="M328,0c-22.056,0-40,17.944-40,40c0,22.056,17.944,40,40,40c22.056,0,40-17.944,40-40C368,17.944,350.056,0,328,0z
			 M328,64c-13.232,0-24-10.768-24-24s10.768-24,24-24s24,10.768,24,24S341.232,64,328,64z"/>
	</g>
</g>
<g>
</g>
<g>
</g>
<g>
</g>
<g>
</g>
<g>
</g>
<g>
</g>
<g>
</g>
<g>
</g>
<g>
</g>
<g>
</g>
<g>
</g>
<g>
</g>
<g>
</g>
<g>
</g>
<g>
</g>
</svg>
