<?xml version="1.0" encoding="iso-8859-1"?>
<!-- Generator: Adobe Illustrator 19.0.0, SVG Export Plug-In . SVG Version: 6.00 Build 0)  -->
<svg version="1.1" id="Capa_1" xmlns="http://www.w3.org/2000/svg" xmlns:xlink="http://www.w3.org/1999/xlink" x="0px" y="0px"
	 viewBox="0 0 464 464" style="enable-background:new 0 0 464 464;" xml:space="preserve">
<g>
	<g>
		<rect x="168" y="384" width="16" height="16"/>
	</g>
</g>
<g>
	<g>
		<rect x="200" y="384" width="96" height="16"/>
	</g>
</g>
<g>
	<g>
		<rect x="296" y="112" width="16" height="16"/>
	</g>
</g>
<g>
	<g>
		<rect x="344" y="112" width="16" height="16"/>
	</g>
</g>
<g>
	<g>
		<rect x="320" y="144" width="16" height="16"/>
	</g>
</g>
<g>
	<g>
		<rect x="368" y="144" width="16" height="16"/>
	</g>
</g>
<g>
	<g>
		<rect x="344" y="176" width="16" height="16"/>
	</g>
</g>
<g>
	<g>
		<rect x="392" y="176" width="16" height="16"/>
	</g>
</g>
<g>
	<g>
		<rect x="320" y="208" width="16" height="16"/>
	</g>
</g>
<g>
	<g>
		<rect x="368" y="208" width="16" height="16"/>
	</g>
</g>
<g>
	<g>
		<rect x="344" y="240" width="16" height="16"/>
	</g>
</g>
<g>
	<g>
		<rect x="392" y="240" width="16" height="16"/>
	</g>
</g>
<g>
	<g>
		<rect x="368" y="272" width="16" height="16"/>
	</g>
</g>
<g>
	<g>
		<rect x="320" y="272" width="16" height="16"/>
	</g>
</g>
<g>
	<g>
		<rect x="344" y="304" width="16" height="16"/>
	</g>
</g>
<g>
	<g>
		<rect x="296" y="304" width="16" height="16"/>
	</g>
</g>
<g>
	<g>
		<rect x="416" y="208" width="16" height="16"/>
	</g>
</g>
<g>
	<g>
		<path d="M312,64c-28.408,0-55.864,7.936-79.856,22.832L232,86.728l-0.144,0.096C207.864,71.936,180.408,64,152,64
			C68.184,64,0,132.184,0,216s68.184,152,152,152c28.392,0,55.832-7.928,79.808-22.8l0.192,0.136l0.192-0.128
			C256.168,360.072,283.608,368,312,368c83.816,0,152-68.184,152-152S395.816,64,312,64z M152,352c-74.992,0-136-61.008-136-136
			S77.008,80,152,80c23.136,0,45.592,5.816,65.616,16.896c-1.432,1.136-2.8,2.328-4.184,3.504c-0.408,0.344-0.824,0.68-1.224,1.024
			c-2.12,1.84-4.184,3.744-6.192,5.688c-0.16,0.152-0.328,0.304-0.488,0.456c-6.624,6.488-12.6,13.528-17.888,21.032
			c-0.12,0.168-0.232,0.344-0.344,0.52c-1.576,2.264-3.096,4.56-4.552,6.904c-0.328,0.536-0.64,1.08-0.96,1.624
			c-1.208,2-2.376,4.024-3.488,6.072c-0.392,0.72-0.76,1.456-1.136,2.192c-0.992,1.896-1.944,3.816-2.856,5.752
			c-0.4,0.848-0.776,1.704-1.152,2.56c-0.824,1.856-1.616,3.72-2.368,5.608c-0.376,0.936-0.736,1.88-1.088,2.824
			c-0.688,1.84-1.344,3.696-1.96,5.568c-0.328,1-0.656,2-0.968,3.008c-0.568,1.856-1.096,3.72-1.592,5.6
			c-0.28,1.04-0.56,2.072-0.816,3.112c-0.464,1.888-0.864,3.8-1.256,5.712c-0.216,1.048-0.44,2.088-0.632,3.136
			c-0.36,1.968-0.648,3.952-0.928,5.936c-0.144,1.016-0.312,2.016-0.432,3.04c-0.256,2.152-0.44,4.32-0.608,6.488
			c-0.064,0.864-0.168,1.72-0.224,2.584c-0.176,3.056-0.28,6.096-0.28,9.16c0,0.008,0,0.008,0,0.016s0,0.008,0,0.016
			c0,0.12,0.008,0.24,0.008,0.36c0.008,2.92,0.096,5.824,0.272,8.712c0.064,1.144,0.2,2.272,0.288,3.408
			c0.152,1.864,0.296,3.736,0.52,5.584c0.16,1.328,0.376,2.632,0.568,3.952c0.24,1.64,0.472,3.288,0.768,4.912
			c0.248,1.392,0.552,2.776,0.84,4.16c0.32,1.528,0.64,3.048,1,4.56c0.344,1.424,0.728,2.84,1.112,4.256
			c0.392,1.44,0.792,2.872,1.224,4.296c0.44,1.44,0.904,2.872,1.384,4.296c0.464,1.368,0.936,2.728,1.432,4.08
			c0.528,1.44,1.08,2.872,1.656,4.296c0.52,1.296,1.072,2.584,1.632,3.864c0.624,1.44,1.264,2.872,1.936,4.288
			c0.576,1.224,1.192,2.424,1.8,3.632c0.728,1.44,1.456,2.872,2.232,4.288c0.616,1.128,1.272,2.224,1.912,3.336
			c0.84,1.456,1.68,2.912,2.568,4.336c0.616,0.976,1.272,1.928,1.904,2.896c0.992,1.504,1.968,3.024,3.016,4.496
			c0.456,0.64,0.944,1.248,1.416,1.88c4.216,5.736,8.848,11.184,13.864,16.312c0.52,0.528,1.008,1.072,1.536,1.592
			c1.416,1.4,2.888,2.744,4.36,4.096c0.728,0.664,1.432,1.352,2.176,2c1.44,1.272,2.936,2.488,4.424,3.712
			c0.6,0.488,1.16,1,1.768,1.48C197.592,346.184,175.136,352,152,352z M192,152.112v127.864c-0.128-0.24-0.264-0.464-0.384-0.704
			c-0.832-1.6-1.616-3.208-2.392-4.824c-0.4-0.84-0.808-1.672-1.192-2.512c-0.736-1.632-1.416-3.288-2.088-4.944
			c-0.344-0.856-0.712-1.712-1.04-2.576c-0.64-1.68-1.216-3.384-1.792-5.088c-0.296-0.88-0.608-1.744-0.888-2.624
			c-0.536-1.72-1.016-3.464-1.488-5.208c-0.24-0.896-0.504-1.776-0.728-2.672c-0.44-1.784-0.808-3.584-1.184-5.384
			c-0.184-0.88-0.392-1.752-0.56-2.64c-0.352-1.896-0.624-3.808-0.888-5.72c-0.112-0.816-0.264-1.616-0.36-2.432
			c-0.256-2.104-0.432-4.224-0.592-6.352c-0.048-0.64-0.136-1.272-0.168-1.92c-0.168-2.776-0.256-5.56-0.256-8.36
			c0-0.256,0.024-0.512,0.024-0.768c0.016-2.52,0.08-5.032,0.232-7.52c0.072-1.184,0.216-2.36,0.32-3.536
			c0.136-1.552,0.248-3.112,0.432-4.656c0.168-1.392,0.408-2.768,0.624-4.144c0.2-1.312,0.376-2.624,0.608-3.92
			c0.272-1.48,0.608-2.944,0.928-4.416c0.256-1.176,0.488-2.36,0.776-3.528c0.368-1.512,0.808-3,1.232-4.496
			c0.312-1.104,0.6-2.208,0.936-3.296c0.472-1.52,1-3.016,1.52-4.512c0.36-1.04,0.712-2.088,1.096-3.12
			c0.576-1.52,1.2-3.016,1.824-4.512c0.408-0.976,0.8-1.952,1.232-2.92c0.672-1.512,1.4-3,2.128-4.488
			c0.448-0.912,0.888-1.832,1.36-2.736C191.504,153,191.768,152.56,192,152.112z M224,319.616c-0.08-0.072-0.168-0.128-0.248-0.2
			c-0.6-0.512-1.184-1.032-1.776-1.544c-1.472-1.304-2.92-2.624-4.336-3.984c-0.592-0.568-1.168-1.144-1.744-1.72
			c-1.352-1.368-2.68-2.744-3.976-4.152c-0.576-0.624-1.144-1.248-1.704-1.888c-0.76-0.848-1.48-1.728-2.216-2.592V128.464
			c0.432-0.512,0.864-1.024,1.304-1.528c1.168-1.344,2.368-2.672,3.592-3.968c0.624-0.664,1.256-1.312,1.888-1.96
			c1.264-1.296,2.56-2.568,3.88-3.808c0.648-0.608,1.304-1.208,1.96-1.8c1.104-1,2.24-1.976,3.376-2.944V319.616z M242.032,317.856
			c-0.592,0.52-1.176,1.04-1.776,1.544c-0.08,0.072-0.168,0.128-0.248,0.2V112.44c1.144,0.968,2.272,1.944,3.376,2.944
			c0.656,0.6,1.312,1.192,1.96,1.8c1.32,1.248,2.616,2.52,3.88,3.808c0.64,0.648,1.264,1.304,1.888,1.96
			c1.216,1.312,2.416,2.64,3.584,3.984c0.44,0.504,0.872,1.016,1.304,1.528v175.064c-0.736,0.872-1.456,1.752-2.208,2.6
			c-0.56,0.632-1.128,1.264-1.704,1.888c-1.296,1.408-2.624,2.784-3.976,4.136c-0.576,0.576-1.16,1.152-1.744,1.72
			C244.952,315.232,243.512,316.56,242.032,317.856z M312,352c-23.136,0-45.592-5.816-65.616-16.896
			c0.608-0.48,1.168-0.992,1.768-1.48c1.496-1.216,2.984-2.44,4.424-3.712c0.744-0.656,1.448-1.336,2.176-2
			c1.472-1.352,2.944-2.696,4.36-4.096c0.528-0.52,1.016-1.064,1.536-1.592c5.024-5.128,9.648-10.576,13.864-16.312
			c0.464-0.632,0.96-1.248,1.416-1.88c1.048-1.472,2.024-2.984,3.016-4.496c0.632-0.968,1.296-1.912,1.904-2.896
			c0.896-1.424,1.728-2.88,2.568-4.336c0.648-1.112,1.296-2.208,1.912-3.336c0.776-1.416,1.504-2.848,2.232-4.288
			c0.608-1.208,1.224-2.408,1.8-3.632c0.672-1.416,1.304-2.848,1.936-4.288c0.56-1.28,1.104-2.568,1.632-3.864
			c0.576-1.424,1.12-2.856,1.656-4.296c0.496-1.352,0.976-2.712,1.432-4.08c0.48-1.424,0.944-2.856,1.384-4.296
			c0.432-1.424,0.832-2.856,1.224-4.296c0.384-1.416,0.768-2.832,1.112-4.256c0.368-1.512,0.68-3.04,1-4.56
			c0.288-1.384,0.584-2.768,0.84-4.16c0.296-1.632,0.528-3.272,0.768-4.912c0.192-1.32,0.408-2.624,0.568-3.952
			c0.224-1.856,0.368-3.72,0.52-5.584c0.096-1.136,0.224-2.264,0.288-3.408c0.168-2.888,0.264-5.8,0.272-8.712
			c0-0.12,0.008-0.24,0.008-0.36c0-0.008,0-0.008,0-0.016s0-0.008,0-0.016c0-3.064-0.104-6.104-0.288-9.136
			c-0.048-0.864-0.152-1.72-0.224-2.584c-0.168-2.168-0.344-4.336-0.608-6.488c-0.12-1.016-0.288-2.024-0.432-3.04
			c-0.28-1.984-0.568-3.968-0.928-5.936c-0.192-1.056-0.416-2.096-0.632-3.136c-0.392-1.912-0.792-3.816-1.256-5.712
			c-0.256-1.04-0.536-2.08-0.816-3.112c-0.504-1.88-1.024-3.744-1.592-5.6c-0.312-1.008-0.64-2.008-0.968-3.008
			c-0.616-1.872-1.272-3.728-1.96-5.568c-0.352-0.944-0.712-1.888-1.088-2.824c-0.752-1.888-1.544-3.76-2.368-5.608
			c-0.384-0.856-0.76-1.712-1.152-2.56c-0.904-1.944-1.864-3.856-2.856-5.752c-0.376-0.728-0.744-1.464-1.136-2.192
			c-1.112-2.056-2.288-4.072-3.488-6.072c-0.328-0.536-0.632-1.088-0.96-1.624c-1.448-2.344-2.968-4.64-4.552-6.904
			c-0.12-0.168-0.224-0.344-0.344-0.52c-5.28-7.504-11.264-14.544-17.888-21.032c-0.16-0.152-0.328-0.304-0.488-0.456
			c-2.008-1.952-4.064-3.848-6.192-5.688c-0.4-0.352-0.816-0.68-1.224-1.024c-1.384-1.176-2.752-2.376-4.184-3.504
			C266.408,85.816,288.864,80,312,80c74.992,0,136,61.008,136,136S386.992,352,312,352z M272.008,279.952V152.104
			c0.24,0.448,0.496,0.888,0.728,1.336c0.464,0.904,0.904,1.816,1.352,2.736c0.728,1.488,1.456,2.976,2.128,4.488
			c0.432,0.968,0.824,1.944,1.232,2.92c0.624,1.496,1.248,2.992,1.824,4.512c0.384,1.032,0.736,2.08,1.096,3.12
			c0.52,1.496,1.048,2.992,1.52,4.512c0.336,1.088,0.632,2.2,0.936,3.296c0.424,1.496,0.856,2.984,1.232,4.496
			c0.288,1.168,0.52,2.352,0.776,3.528c0.32,1.472,0.656,2.928,0.928,4.416c0.24,1.296,0.408,2.616,0.608,3.92
			c0.208,1.384,0.448,2.752,0.624,4.144c0.184,1.544,0.296,3.104,0.432,4.656c0.104,1.184,0.248,2.352,0.32,3.536
			c0.152,2.496,0.216,5.008,0.232,7.52c0,0.256,0.024,0.512,0.024,0.768c0,2.8-0.088,5.584-0.256,8.36
			c-0.04,0.64-0.12,1.272-0.168,1.92c-0.16,2.128-0.336,4.248-0.592,6.352c-0.096,0.816-0.248,1.616-0.36,2.432
			c-0.272,1.912-0.544,3.824-0.888,5.72c-0.16,0.888-0.376,1.76-0.56,2.64c-0.368,1.8-0.736,3.6-1.184,5.384
			c-0.224,0.896-0.488,1.784-0.728,2.672c-0.472,1.744-0.944,3.488-1.488,5.208c-0.28,0.88-0.592,1.752-0.888,2.624
			c-0.576,1.704-1.152,3.408-1.792,5.088c-0.328,0.864-0.696,1.72-1.04,2.576c-0.672,1.656-1.352,3.312-2.088,4.944
			c-0.384,0.848-0.792,1.68-1.192,2.512c-0.768,1.616-1.552,3.224-2.384,4.808C272.264,279.488,272.136,279.712,272.008,279.952z"/>
	</g>
</g>
<g>
</g>
<g>
</g>
<g>
</g>
<g>
</g>
<g>
</g>
<g>
</g>
<g>
</g>
<g>
</g>
<g>
</g>
<g>
</g>
<g>
</g>
<g>
</g>
<g>
</g>
<g>
</g>
<g>
</g>
</svg>
