<?xml version="1.0" encoding="iso-8859-1"?>
<!-- Generator: Adobe Illustrator 19.0.0, SVG Export Plug-In . SVG Version: 6.00 Build 0)  -->
<svg version="1.1" id="Capa_1" xmlns="http://www.w3.org/2000/svg" xmlns:xlink="http://www.w3.org/1999/xlink" x="0px" y="0px"
	 viewBox="0 0 368 368" style="enable-background:new 0 0 368 368;" xml:space="preserve">
<g>
	<g>
		<circle cx="184" cy="304" r="16"/>
	</g>
</g>
<g>
	<g>
		<path d="M157.656,146.344l-32-32c-3.128-3.128-8.184-3.128-11.312,0s-3.128,8.184,0,11.312L140.688,152l-26.344,26.344
			c-3.128,3.128-3.128,8.184,0,11.312c1.56,1.56,3.608,2.344,5.656,2.344c2.048,0,4.096-0.784,5.656-2.344l32-32
			C160.784,154.528,160.784,149.472,157.656,146.344z"/>
	</g>
</g>
<g>
	<g>
		<path d="M248,176h-64c-4.416,0-8,3.584-8,8s3.584,8,8,8h64c4.416,0,8-3.584,8-8C256,179.584,252.416,176,248,176z"/>
	</g>
</g>
<g>
	<g>
		<path d="M248,128h-48c-4.416,0-8,3.584-8,8s3.584,8,8,8h48c4.416,0,8-3.584,8-8S252.416,128,248,128z"/>
	</g>
</g>
<g>
	<g>
		<path d="M248,224H120c-4.416,0-8,3.584-8,8c0,4.416,3.584,8,8,8h128c4.416,0,8-3.584,8-8C256,227.584,252.416,224,248,224z"/>
	</g>
</g>
<g>
	<g>
		<path d="M263.968,0C262.488,0,104,0,104,0s0,0-0.008,0c-10.68,0-20.72,4.16-28.272,11.712S64,29.32,64,40v15.984
			c0,0.008,0,0.008,0,0.016s0,0.008,0,0.016V328c0,22.056,17.944,40,40,40h160c22.056,0,40-17.944,40-40V40
			C304,17.944,286.056,0,263.968,0z M80,40c0-6.408,2.496-12.44,7.032-16.968C91.56,18.504,97.584,16,103.992,16h80
			c53.232,0,72.456,0,80-0.616V16c13.232,0,24,10.768,24,24v8H80V40z M288,328c0,13.232-10.768,24-24,24H104
			c-13.232,0-24-10.768-24-24V64h208V328z"/>
	</g>
</g>
<g>
</g>
<g>
</g>
<g>
</g>
<g>
</g>
<g>
</g>
<g>
</g>
<g>
</g>
<g>
</g>
<g>
</g>
<g>
</g>
<g>
</g>
<g>
</g>
<g>
</g>
<g>
</g>
<g>
</g>
</svg>
