<?xml version="1.0" encoding="iso-8859-1"?>
<!-- Generator: Adobe Illustrator 19.0.0, SVG Export Plug-In . SVG Version: 6.00 Build 0)  -->
<svg version="1.1" id="Capa_1" xmlns="http://www.w3.org/2000/svg" xmlns:xlink="http://www.w3.org/1999/xlink" x="0px" y="0px"
	 viewBox="0 0 368 368" style="enable-background:new 0 0 368 368;" xml:space="preserve">
<g>
	<g>
		<path d="M312,0H56C42.768,0,32,10.768,32,24v208c0,2.288,0.976,4.464,2.68,5.984l144,128c0.4,0.352,0.872,0.536,1.32,0.792
			c0.352,0.208,0.656,0.472,1.048,0.632C182,367.784,182.992,368,184,368s2-0.216,2.952-0.6c0.384-0.152,0.688-0.416,1.048-0.632
			c0.44-0.264,0.92-0.44,1.32-0.792l144-128c1.704-1.512,2.68-3.688,2.68-5.976V24C336,10.768,325.232,0,312,0z M176,342.184
			L48,228.408V64h128v48.472c-35.944,4-64,34.536-64,71.528s28.056,67.528,64,71.528V342.184z M184,240c-30.88,0-56-25.12-56-56
			s25.12-56,56-56c11.792,0,22.728,3.68,31.76,9.936L184,185.576l-9.344-14.016c-2.456-3.68-7.416-4.68-11.096-2.216
			c-3.672,2.448-4.664,7.416-2.216,11.096l16,24c1.488,2.224,3.984,3.56,6.656,3.56s5.168-1.336,6.656-3.56l36.976-55.456
			C235.352,158.576,240,170.752,240,184C240,214.88,214.88,240,184,240z M320,228.408L192,342.184v-86.656
			c35.944-4,64-34.536,64-71.528c0-18.832-7.32-35.936-19.2-48.784l17.856-26.784c2.448-3.672,1.456-8.648-2.216-11.096
			c-3.672-2.464-8.648-1.456-11.096,2.216l-16.704,25.056c-9.496-6.52-20.624-10.816-32.64-12.152V64h128V228.408z M320,48H48V24
			c0-4.408,3.592-8,8-8h256c4.408,0,8,3.592,8,8V48z"/>
	</g>
</g>
<g>
</g>
<g>
</g>
<g>
</g>
<g>
</g>
<g>
</g>
<g>
</g>
<g>
</g>
<g>
</g>
<g>
</g>
<g>
</g>
<g>
</g>
<g>
</g>
<g>
</g>
<g>
</g>
<g>
</g>
</svg>
