<svg height="368pt" viewBox="0 0 368 368" width="368pt" xmlns="http://www.w3.org/2000/svg"><path d="m368 120c0-66.167969-53.832031-120-120-120-48.351562 0-90.015625 28.808594-109 70.113281-11.183594-3.984375-22.902344-6.113281-35-6.113281-57.34375 0-104 46.65625-104 104 0 54.648438 42.390625 99.488281 96 103.59375v80.40625h-88c-4.414062 0-8 3.585938-8 8s3.585938 8 8 8h352c4.414062 0 8-3.585938 8-8s-3.585938-8-8-8h-104v-112.40625c62.441406-4.144531 112-56.128906 112-119.59375zm-120-104c57.34375 0 104 46.65625 104 104 0 54.648438-42.390625 99.488281-96 103.59375v-51.3125l44.441406-29.625c3.671875-2.449219 4.664063-7.417969 2.214844-11.097656-2.457031-3.679688-7.417969-4.679688-11.097656-2.214844l-35.558594 23.710938v-49.054688c0-4.414062-3.585938-8-8-8s-8 3.585938-8 8v49.054688l-35.558594-23.710938c-3.679687-2.464844-8.648437-1.464844-11.097656 2.214844-2.449219 3.671875-1.457031 8.648437 2.214844 11.097656l44.441406 29.625v51.3125c-17.9375-1.378906-34.601562-7.273438-48.855469-16.617188-2.753906-1.800781-5.382812-3.738281-7.929687-5.761718-1.65625-1.328125-3.230469-2.734375-4.808594-4.152344-1.582031-1.421875-3.167969-2.855469-4.644531-4.367188-1.523438-1.550781-2.96875-3.183593-4.394531-4.832031-1.015626-1.167969-2-2.367187-2.960938-3.574219-1.414062-1.800781-2.8125-3.617187-4.117188-5.503906-.800781-1.167968-1.519531-2.394531-2.28125-3.59375-2.039062-3.238281-3.886718-6.605468-5.566406-10.070312-.832031-1.730469-1.714844-3.425782-2.449218-5.199219-.703126-1.683594-1.273438-3.433594-1.886719-5.160156-.730469-2.066407-1.433594-4.136719-2.035157-6.25-.453124-1.589844-.863281-3.207031-1.246093-4.832031-.578125-2.496094-1.046875-5.023438-1.449219-7.566407-.207031-1.351562-.464844-2.699219-.621094-4.066406-.449218-3.96875-.753906-7.976563-.753906-12.046875 0-3.425781.191406-6.800781.511719-10.136719.097656-.992187.28125-1.960937.398437-2.941406.296875-2.335937.617188-4.664063 1.066406-6.953125.238282-1.207031.550782-2.402344.832032-3.601562.457031-1.960938.933594-3.917969 1.503906-5.839844.441406-1.472656.945312-2.925782 1.457031-4.382813 14.085938-40.753906 52.742188-70.144531 98.230469-70.144531zm-232 152c0-48.519531 39.480469-88 88-88 10.097656 0 19.894531 1.65625 29.230469 4.929688-1.015625 3.300781-1.839844 6.65625-2.566407 10.039062-.183593.878906-.328124 1.765625-.496093 2.65625-.527344 2.765625-.953125 5.550781-1.28125 8.367188-.117188.992187-.238281 1.984374-.328125 2.984374-.335938 3.640626-.558594 7.3125-.558594 11.023438 0 4.511719.296875 8.945312.785156 13.328125.175782 1.601563.488282 3.160156.726563 4.742187.410156 2.707032.847656 5.402344 1.441406 8.050782.4375 2 .984375 3.949218 1.527344 5.910156.582031 2.097656 1.191406 4.167969 1.886719 6.207031.746093 2.226563 1.542968 4.410157 2.410156 6.578125.648437 1.589844 1.351562 3.152344 2.054687 4.710938 1.097657 2.417968 2.199219 4.816406 3.449219 7.152344.472656.878906 1.007812 1.703124 1.503906 2.566406 4.765625 8.378906 10.542969 16.144531 17.246094 23.195312 1.023438 1.078125 2.015625 2.167969 3.082031 3.207032 1.71875 1.679687 3.511719 3.28125 5.34375 4.855468 1.589844 1.382813 3.214844 2.710938 4.878907 4.015625.984374.769531 1.863281 1.632813 2.878906 2.367188-14.742188 22.074219-38.773438 36.191406-65.214844 38.609375v-55.496094c0-1.039062-.214844-2.078125-.617188-3.054688-.40625-.976562-.992187-1.867187-1.726562-2.601562l-32-32c-3.128906-3.128906-8.183594-3.128906-11.3125 0s-3.128906 8.183594 0 11.3125l29.65625 29.65625v52.28125c-44.785156-4.058594-80-41.769531-80-87.59375zm96 184v-80.335938c31.96875-2.464843 61.039062-19.542968 78.71875-46.25 14.816406 8.082032 31.546875 13 49.28125 14.179688v112.40625zm0 0"/></svg>