<?xml version="1.0" encoding="iso-8859-1"?>
<!-- Generator: Adobe Illustrator 19.0.0, SVG Export Plug-In . SVG Version: 6.00 Build 0)  -->
<svg version="1.1" id="Capa_1" xmlns="http://www.w3.org/2000/svg" xmlns:xlink="http://www.w3.org/1999/xlink" x="0px" y="0px"
	 viewBox="0 0 512.001 512.001" style="enable-background:new 0 0 512.001 512.001;" xml:space="preserve">
<g>
	<g>
		<path d="M511.733,251.063c-1.345-70.171-30.591-135.214-82.333-183.123C331.975-22.647,179.35-22.647,81.92,67.945
			C30.39,115.914,1.312,180.968,0.06,251.134c-1.258,70.171,25.397,136.161,75.049,185.813c2.074,2.08,4.9,3.25,7.845,3.19
			c2.94-0.044,5.738-1.263,7.758-3.403c3-3.163,6.696-6.974,8.155-8.373c0.506-0.359,0.985-0.762,1.437-1.214l24.036-24.031h78.239
			c9.059,0,17.046-5.461,20.351-13.91c3.245-8.286,1.143-17.509-5.03-23.193c-21.113-21.118-32.742-49.124-32.742-78.866v-93.641
			c0-9.517,3.604-18.146,10.42-24.967c6.626-6.62,15.723-10.42,24.967-10.42h70.231c9.517,0,18.151,3.604,24.967,10.426
			c6.626,6.615,10.42,15.718,10.42,24.962v93.641c0,29.747-11.623,57.758-33.063,79.209c-5.793,6.31-7.23,15.62-3.669,23.715
			c3.533,8.047,11.144,13.044,19.855,13.044h82.753c6.01,0,10.889-4.878,10.889-10.888c0-6.01-4.878-10.889-10.889-10.889
			l-82.584,0.125c-0.087-0.098-0.169-0.338-0.18-0.512c24.94-25.169,38.665-58.46,38.665-93.805v-93.641
			c0-14.977-6.125-29.693-16.801-40.364c-10.829-10.834-25.163-16.801-40.364-16.801h-70.231c-14.977,0-29.693,6.125-40.369,16.801
			c-10.829,10.834-16.796,25.169-16.796,40.364v93.641c0,35.556,13.894,69.033,39.199,94.191h-82.753
			c-2.885,0-5.657,1.149-7.698,3.19l-27.063,27.063c-0.686,0.572-1.41,1.23-2.189,1.971
			c-40.522-44.409-62.124-101.519-61.041-162.037c1.149-64.199,27.76-123.737,74.924-167.634
			c89.106-82.856,228.702-82.856,317.836,0.011c47.371,43.864,74.14,103.376,75.376,167.574
			c1.23,64.204-23.127,124.597-68.603,170.073c-4.252,4.252-4.252,11.144,0,15.396c2.129,2.129,4.911,3.19,7.698,3.19
			s5.57-1.062,7.693-3.185C486.455,387.256,513.083,321.239,511.733,251.063z"/>
	</g>
</g>
<g>
	<g>
		<path d="M511.82,245.94c-0.212-6.01-5.031-10.731-11.264-10.502c-6.01,0.207-10.709,5.248-10.502,11.259
			c2.265,64.607-21.118,125.697-65.843,172.011c-44.529,46.118-104.296,71.516-168.271,71.516c-6.01,0-10.889,4.878-10.889,10.888
			s4.878,10.889,10.889,10.889c69.942,0,135.263-27.755,183.94-78.163C488.742,383.238,514.287,316.508,511.82,245.94z"/>
	</g>
</g>
<g>
</g>
<g>
</g>
<g>
</g>
<g>
</g>
<g>
</g>
<g>
</g>
<g>
</g>
<g>
</g>
<g>
</g>
<g>
</g>
<g>
</g>
<g>
</g>
<g>
</g>
<g>
</g>
<g>
</g>
</svg>
