<svg height="368pt" viewBox="0 0 368 368" width="368pt" xmlns="http://www.w3.org/2000/svg"><path d="m328 64h-56v-40c0-13.230469-10.769531-24-24-24h-128c-13.230469 0-24 10.769531-24 24v40h-56c-22.054688 0-40 17.945312-40 40v224c0 22.054688 17.945312 40 40 40h287.992188c22.0625 0 40.007812-17.945312 40.007812-40v-224c0-22.054688-17.945312-40-40-40zm-216-40c0-4.40625 3.585938-8 8-8h128c4.414062 0 8 3.585938 8 8v40h-144zm240 264h-40c-4.425781 0-8 3.585938-8 8s3.574219 8 8 8h40v24c0 13.230469-10.777344 24-24.007812 24h-287.992188c-13.230469 0-24-10.769531-24-24v-24h40c4.425781 0 8-3.585938 8-8s-3.574219-8-8-8h-40v-88.207031c6.703125 5.078125 14.960938 8.207031 24 8.207031h88v24c0 4.414062 3.574219 8 8 8h40v40c0 4.414062 3.574219 8 8 8s8-3.585938 8-8v-40h40c4.425781 0 8-3.585938 8-8v-24h87.992188c9.039062 0 17.304687-3.128906 24.007812-8.207031zm-208-64v-48h80v48zm208-56c0 13.230469-10.777344 24-24.007812 24h-87.992188v-24c0-4.414062-3.574219-8-8-8h-96c-4.425781 0-8 3.585938-8 8v24h-88c-13.230469 0-24-10.769531-24-24v-64c0-13.230469 10.769531-24 24-24h288c13.230469 0 24 10.769531 24 24zm0 0"/></svg>