<?xml version="1.0" encoding="iso-8859-1"?>
<!-- Generator: Adobe Illustrator 19.0.0, SVG Export Plug-In . SVG Version: 6.00 Build 0)  -->
<svg version="1.1" id="Capa_1" xmlns="http://www.w3.org/2000/svg" xmlns:xlink="http://www.w3.org/1999/xlink" x="0px" y="0px"
	 viewBox="0 0 368 368" style="enable-background:new 0 0 368 368;" xml:space="preserve">
<g>
	<g>
		<path d="M300.912,220.888c0-0.016-0.016-0.032-0.016-0.048c-7.8-33.64-30.384-62.808-60.896-78.976V64c17.648,0,32-14.352,32-32
			S257.648,0,240,0H128c-17.648,0-32,14.352-32,32s14.352,32,32,32v77.872c-26.192,13.888-46.704,37.384-56.728,65.16
			c-0.032,0.08-0.112,0.144-0.144,0.224C66.4,220.216,64,233.92,64,248c0,66.168,53.832,120,120,120s120-53.832,120-120
			C304,238.736,302.96,229.616,300.912,220.888z M112,32c0-8.824,7.176-16,16-16h112c8.824,0,16,7.176,16,16s-7.176,16-16,16H128
			C119.176,48,112,40.824,112,32z M89.976,203.712c0.488-1.032,1.048-2.024,1.568-3.04c0.944-1.832,1.896-3.664,2.944-5.44
			c0.648-1.096,1.352-2.152,2.04-3.224c1.04-1.624,2.112-3.232,3.24-4.8c0.776-1.072,1.592-2.12,2.408-3.168
			c1.16-1.48,2.36-2.936,3.6-4.36c0.888-1.016,1.784-2.008,2.704-2.984c1.296-1.368,2.632-2.696,4-4
			c0.96-0.912,1.92-1.832,2.92-2.712c1.456-1.288,2.976-2.504,4.512-3.712c0.992-0.784,1.968-1.584,2.984-2.336
			c1.728-1.264,3.528-2.432,5.336-3.592c0.904-0.576,1.768-1.2,2.688-1.752c2.76-1.648,5.592-3.192,8.512-4.584
			c2.792-1.312,4.568-4.12,4.568-7.208V64h80v82.8c0,3.088,1.776,5.904,4.568,7.224c3.328,1.584,6.544,3.376,9.664,5.296
			c1.016,0.624,1.968,1.328,2.96,1.984c2.064,1.368,4.104,2.776,6.064,4.288c1.104,0.848,2.152,1.752,3.224,2.648
			c1.752,1.464,3.456,2.968,5.104,4.544c1.04,0.992,2.056,2.008,3.056,3.04c1.576,1.632,3.08,3.32,4.544,5.048
			c0.904,1.072,1.824,2.128,2.688,3.232c1.488,1.904,2.872,3.88,4.224,5.888c0.688,1.016,1.424,2.008,2.08,3.048
			c1.792,2.856,3.44,5.792,4.952,8.808c0.12,0.24,0.264,0.456,0.384,0.696c1.464,2.984,2.72,6.08,3.888,9.2
			c-0.304-0.096-0.592-0.2-0.888-0.296c-2.824-0.92-5.528-1.904-8.264-2.936C261.056,204.336,249.504,200,226.64,200
			c-22.76,0-34.296,4.328-45.448,8.504C170.912,212.36,161.2,216,141.28,216c-19.808,0-29.496-3.624-39.752-7.456
			c-1.664-0.624-3.352-1.24-5.08-1.856c-0.56-0.2-1.144-0.392-1.712-0.584c-1.296-0.448-2.64-0.88-4.024-1.304
			c-0.36-0.112-0.688-0.232-1.056-0.344C89.776,204.208,89.864,203.952,89.976,203.712z M184,352c-57.344,0-104-46.656-104-104
			c0-9.776,1.328-19.336,3.96-28.512c0.4,0.112,0.8,0.232,1.192,0.344c1.408,0.416,2.784,0.848,4.12,1.304
			c0.528,0.184,1.072,0.36,1.592,0.544c1.688,0.6,3.368,1.216,5.064,1.848c11.136,4.168,22.656,8.472,45.352,8.472
			c22.824,0,34.368-4.328,45.528-8.512C197.08,219.64,206.784,216,226.64,216c19.96,0,29.68,3.648,39.976,7.504
			c1.584,0.592,3.192,1.192,4.832,1.776c0.576,0.208,1.176,0.4,1.76,0.608c1.192,0.416,2.408,0.816,3.664,1.208
			c0.704,0.224,1.432,0.432,2.168,0.648c1.256,0.368,2.576,0.712,3.928,1.048c0.752,0.184,1.496,0.376,2.28,0.552
			c0.384,0.088,0.728,0.184,1.128,0.272C287.456,235.6,288,241.752,288,248C288,305.344,241.344,352,184,352z"/>
	</g>
</g>
<g>
</g>
<g>
</g>
<g>
</g>
<g>
</g>
<g>
</g>
<g>
</g>
<g>
</g>
<g>
</g>
<g>
</g>
<g>
</g>
<g>
</g>
<g>
</g>
<g>
</g>
<g>
</g>
<g>
</g>
</svg>
