<svg height="368pt" viewBox="0 0 368 368" width="368pt" xmlns="http://www.w3.org/2000/svg"><path d="m328 144c22.054688 0 40-17.945312 40-40s-17.945312-40-40-40h-24v-56c0-4.414062-3.585938-8-8-8h-224c-4.414062 0-8 3.585938-8 8v56h-24c-22.054688 0-40 17.945312-40 40s17.945312 40 40 40h24v48h-56c-4.414062 0-8 3.585938-8 8v160c0 4.414062 3.585938 8 8 8h352c4.414062 0 8-3.585938 8-8v-160c0-4.414062-3.585938-8-8-8h-56v-48zm0-64c13.230469 0 24 10.769531 24 24s-10.769531 24-24 24h-24v-48zm-288 48c-13.230469 0-24-10.769531-24-24s10.769531-24 24-24h24v48zm312 224h-336v-144h336zm-272-160v-176h208v176zm0 0"/><path d="m48 248v64c0 4.414062 3.585938 8 8 8h256c4.414062 0 8-3.585938 8-8v-64c0-4.414062-3.585938-8-8-8h-256c-4.414062 0-8 3.585938-8 8zm16 8h240v48h-240zm0 0"/><path d="m136 112c13.230469 0 24-10.769531 24-24s-10.769531-24-24-24-24 10.769531-24 24 10.769531 24 24 24zm0-32c4.40625 0 8 3.59375 8 8s-3.59375 8-8 8-8-3.59375-8-8 3.59375-8 8-8zm0 0"/><path d="m232 64c-13.230469 0-24 10.769531-24 24s10.769531 24 24 24 24-10.769531 24-24-10.769531-24-24-24zm0 32c-4.40625 0-8-3.59375-8-8s3.59375-8 8-8 8 3.59375 8 8-3.59375 8-8 8zm0 0"/><path d="m248 144h-128c-4.414062 0-8 3.585938-8 8s3.585938 8 8 8h128c4.414062 0 8-3.585938 8-8s-3.585938-8-8-8zm0 0"/></svg>