<?xml version="1.0" encoding="iso-8859-1"?>
<!-- Generator: Adobe Illustrator 19.0.0, SVG Export Plug-In . SVG Version: 6.00 Build 0)  -->
<svg version="1.1" id="Capa_1" xmlns="http://www.w3.org/2000/svg" xmlns:xlink="http://www.w3.org/1999/xlink" x="0px" y="0px"
	 viewBox="0 0 368 368" style="enable-background:new 0 0 368 368;" xml:space="preserve">
<g>
	<g>
		<path d="M368,184c0-19.32-13.768-35.472-32-39.192V79.192c18.232-3.72,32-19.88,32-39.192c0-22.056-17.944-40-40-40
			c-19.312,0-35.472,13.768-39.192,32H79.192C75.472,13.768,59.312,0,40,0C17.944,0,0,17.944,0,40c0,19.312,13.768,35.472,32,39.192
			v65.616C13.768,148.528,0,164.688,0,184s13.768,35.472,32,39.192v65.616C13.768,292.528,0,308.688,0,328c0,22.056,17.944,40,40,40
			c19.312,0,35.472-13.768,39.192-32h65.616c3.72,18.232,19.872,32,39.192,32s35.472-13.768,39.192-32h65.616
			c3.72,18.232,19.872,32,39.192,32c22.056,0,40-17.944,40-40c0-19.312-13.768-35.472-32-39.192v-65.616
			C354.232,219.472,368,203.32,368,184z M328,16c13.232,0,24,10.768,24,24s-10.768,24-24,24s-24-10.768-24-24S314.768,16,328,16z
			 M192,48h96.808C292,63.648,304.352,76,320,79.192v65.616C304.352,148,292,160.352,288.808,176H256v-40c0-4.416-3.584-8-8-8h-24
			v-24c0-13.232-10.768-24-24-24h-8V48z M200,176h-32c-4.416,0-8,3.584-8,8s3.584,8,8,8h8v48h-48v-96h112v96h-48v-48h8
			c4.416,0,8-3.584,8-8C208,179.584,204.416,176,200,176z M160,128v-24c0-4.408,3.592-8,8-8h32c4.408,0,8,3.592,8,8v24H160z
			 M79.192,48H176v32h-8c-13.232,0-24,10.768-24,24v24h-24c-4.416,0-8,3.584-8,8v40H79.192C76,160.352,63.648,148,48,144.808V79.192
			C63.648,76,76,63.648,79.192,48z M16,40c0-13.232,10.768-24,24-24s24,10.768,24,24S53.232,64,40,64S16,53.232,16,40z M16,184
			c0-13.232,10.768-24,24-24s24,10.768,24,24s-10.768,24-24,24S16,197.232,16,184z M40,352c-13.232,0-24-10.768-24-24
			s10.768-24,24-24s24,10.768,24,24S53.232,352,40,352z M144.808,320H79.192C76,304.352,63.648,292,48,288.808v-65.616
			C63.648,220,76,207.648,79.192,192H112v56c0,4.416,3.584,8,8,8h56v32.808C160.352,292,148,304.352,144.808,320z M184,352
			c-13.232,0-24-10.768-24-24s10.768-24,24-24s24,10.768,24,24S197.232,352,184,352z M288.808,320h-65.616
			C220,304.352,207.648,292,192,288.808V256h56c4.416,0,8-3.584,8-8v-56h32.808C292,207.648,304.352,220,320,223.192v65.616
			C304.352,292,292,304.352,288.808,320z M352,328c0,13.232-10.768,24-24,24s-24-10.768-24-24s10.768-24,24-24S352,314.768,352,328z
			 M328,208c-13.232,0-24-10.768-24-24s10.768-24,24-24s24,10.768,24,24S341.232,208,328,208z"/>
	</g>
</g>
<g>
</g>
<g>
</g>
<g>
</g>
<g>
</g>
<g>
</g>
<g>
</g>
<g>
</g>
<g>
</g>
<g>
</g>
<g>
</g>
<g>
</g>
<g>
</g>
<g>
</g>
<g>
</g>
<g>
</g>
</svg>
