<svg id="Layer_1" enable-background="new 0 0 480 480" height="512" viewBox="0 0 480 480" width="512" xmlns="http://www.w3.org/2000/svg"><path d="m480 192.5v34c0 17.645-14.355 32-32 32h-366.333c-4.418 0-8-3.582-8-8s3.582-8 8-8h366.333c8.822 0 16-7.178 16-16v-34c0-8.822-7.178-16-16-16h-416c-8.822 0-16 7.178-16 16v34c0 8.822 7.178 16 16 16 8.252 0 10.945-.625 13.9 2.611 2.208 2.413.142-5.285 36.842 180.051 2.219 11.206 12.119 19.338 23.543 19.338h267.43c11.424 0 21.324-8.133 23.543-19.338l26.983-136.265c.857-4.334 5.073-7.153 9.401-6.293 4.334.858 7.152 5.067 6.294 9.402l-26.983 136.264c-3.697 18.675-20.199 32.23-39.238 32.23h-267.43c-19.039 0-35.541-13.555-39.238-32.23l-33.618-169.77c-20.449 0-33.429-15.268-33.429-32v-34c0-17.645 14.355-32 32-32h24v-40c0-17.645 14.355-32 32-32h112c17.645 0 32 14.355 32 32v15c0 4.418-3.582 8-8 8s-8-3.582-8-8v-15c0-8.822-7.178-16-16-16h-112c-8.822 0-16 7.178-16 16v40h376c17.645 0 32 14.355 32 32zm-248 111v96c0 4.418 3.582 8 8 8s8-3.582 8-8v-96c0-4.418-3.582-8-8-8s-8 3.582-8 8zm-80 15v66c0 4.418 3.582 8 8 8s8-3.582 8-8v-66c0-4.418-3.582-8-8-8s-8 3.582-8 8zm160 0v66c0 4.418 3.582 8 8 8s8-3.582 8-8v-66c0-4.418-3.582-8-8-8s-8 3.582-8 8zm-124-251c4.418 0 8-3.582 8-8v-8c0-8.822 7.178-16 16-16h172c8.822 0 16 7.178 16 16v81.5c0 4.418 3.582 8 8 8s8-3.582 8-8v-81.5c0-17.645-14.355-32-32-32h-172c-17.645 0-32 14.355-32 32v8c0 4.418 3.582 8 8 8z"/></svg>