<?xml version="1.0" encoding="UTF-8" standalone="no"?>
<!DOCTYPE svg PUBLIC "-//W3C//DTD SVG 1.1//EN" "http://www.w3.org/Graphics/SVG/1.1/DTD/svg11.dtd">
<svg width="100%" height="100%" viewBox="0 0 157 145" version="1.1" xmlns="http://www.w3.org/2000/svg" xmlns:xlink="http://www.w3.org/1999/xlink" xml:space="preserve" xmlns:serif="http://www.serif.com/" style="fill-rule:evenodd;clip-rule:evenodd;stroke-linejoin:round;stroke-miterlimit:2;">
    <g transform="matrix(1,0,0,1,-572.294,-512.511)">
        <g id="PC" transform="matrix(3.125,0,0,3.125,-104.97,-727.735)">
            <g transform="matrix(1.00061,0,0,-1.00051,161.588,837.822)">
                <path d="M87.529,404.182L73.929,404.182C75.563,398.414 73.368,397.582 63.754,397.582L63.754,394.562L96.45,394.562L96.45,397.582C86.836,397.582 85.893,398.406 87.529,404.182" style="fill:rgb(122,122,122);fill-rule:nonzero;"/>
            </g>
            <g transform="matrix(1.00061,0,0,-1.00051,161.588,791.646)">
                <path d="M102.083,394.564L57.821,394.564C57.454,394.55 57.103,394.467 56.768,394.316C56.434,394.165 56.14,393.956 55.886,393.691C55.633,393.425 55.438,393.121 55.303,392.78C55.168,392.439 55.101,392.084 55.104,391.717L55.104,360.851C55.102,360.485 55.17,360.133 55.306,359.793C55.441,359.453 55.636,359.152 55.89,358.888C56.144,358.625 56.437,358.419 56.772,358.27C57.106,358.121 57.455,358.04 57.821,358.028L102.083,358.028C102.465,358.035 102.832,358.11 103.186,358.254C103.54,358.397 103.856,358.599 104.135,358.86C104.414,359.12 104.637,359.422 104.804,359.766C104.971,360.109 105.071,360.471 105.104,360.851L105.104,391.717C105.073,392.099 104.974,392.463 104.808,392.808C104.642,393.154 104.419,393.458 104.14,393.721C103.861,393.984 103.545,394.188 103.19,394.333C102.835,394.479 102.466,394.556 102.083,394.564" style="fill:rgb(160,161,162);fill-rule:nonzero;"/>
            </g>
            <g transform="matrix(1.00061,0,0,-1.00051,161.588,791.652)">
                <path d="M102.114,394.567L57.82,394.567C57.453,394.553 57.102,394.47 56.767,394.319C56.433,394.168 56.138,393.96 55.885,393.694C55.631,393.428 55.437,393.125 55.302,392.783C55.166,392.442 55.1,392.087 55.103,391.72L55.103,360.855C55.101,360.489 55.168,360.136 55.304,359.797C55.44,359.457 55.635,359.155 55.889,358.892C56.142,358.628 56.436,358.422 56.77,358.273C57.104,358.124 57.454,358.043 57.82,358.031L58.873,358.031L102.114,394.567Z" style="fill:white;fill-opacity:0.2;fill-rule:nonzero;"/>
            </g>
            <g transform="matrix(1.00061,0,0,-1.00051,161.588,791.647)">
                <path d="M101.201,390.717L101.201,361.876L58.893,361.876L58.893,390.717L101.201,390.717L101.201,390.717Z" style="fill:rgb(89,180,217);fill-rule:nonzero;"/>
            </g>
            <g transform="matrix(1.00061,0,0,-1.00051,161.588,791.59)">
                <path d="M58.893,361.819L58.951,361.819L58.951,390.659L97.631,390.717L97.633,390.717L58.893,390.659L58.893,361.819L58.893,361.819Z" style="fill:rgb(89,180,217);fill-rule:nonzero;"/>
            </g>
            <g transform="matrix(1.00061,0,0,-1.00051,161.588,844.414)">
                <rect x="63.758" y="401.156" width="32.692" height="3.021" style="fill:rgb(160,161,162);"/>
            </g>
        </g>
    </g>
</svg>
